<svg width="236" height="54" viewBox="0 0 236 54" fill="none" xmlns="http://www.w3.org/2000/svg">
<path d="M4.788 17.536C4.044 17.536 3.42 17.284 2.916 16.78C2.412 16.276 2.16 15.652 2.16 14.908C2.16 14.164 2.412 13.54 2.916 13.036C3.42 12.532 4.044 12.28 4.788 12.28C5.508 12.28 6.12 12.532 6.624 13.036C7.128 13.54 7.38 14.164 7.38 14.908C7.38 15.652 7.128 16.276 6.624 16.78C6.12 17.284 5.508 17.536 4.788 17.536ZM6.804 20.164V40H2.7V20.164H6.804ZM10.8242 27.436C10.8242 24.988 11.3882 22.792 12.5162 20.848C13.6682 18.904 15.2162 17.392 17.1602 16.312C19.1282 15.208 21.2762 14.656 23.6042 14.656C26.2682 14.656 28.6322 15.316 30.6962 16.636C32.7842 17.932 34.2962 19.78 35.2322 22.18H30.3002C29.6522 20.86 28.7522 19.876 27.6002 19.228C26.4482 18.58 25.1162 18.256 23.6042 18.256C21.9482 18.256 20.4722 18.628 19.1762 19.372C17.8802 20.116 16.8602 21.184 16.1162 22.576C15.3962 23.968 15.0362 25.588 15.0362 27.436C15.0362 29.284 15.3962 30.904 16.1162 32.296C16.8602 33.688 17.8802 34.768 19.1762 35.536C20.4722 36.28 21.9482 36.652 23.6042 36.652C25.1162 36.652 26.4482 36.328 27.6002 35.68C28.7522 35.032 29.6522 34.048 30.3002 32.728H35.2322C34.2962 35.128 32.7842 36.976 30.6962 38.272C28.6322 39.568 26.2682 40.216 23.6042 40.216C21.2522 40.216 19.1042 39.676 17.1602 38.596C15.2162 37.492 13.6682 35.968 12.5162 34.024C11.3882 32.08 10.8242 29.884 10.8242 27.436ZM48.6399 40.324C46.7679 40.324 45.0759 39.904 43.5639 39.064C42.0519 38.2 40.8639 37 39.9999 35.464C39.1359 33.904 38.7039 32.104 38.7039 30.064C38.7039 28.048 39.1479 26.26 40.0359 24.7C40.9239 23.14 42.1359 21.94 43.6719 21.1C45.2079 20.26 46.9239 19.84 48.8199 19.84C50.7159 19.84 52.4319 20.26 53.9679 21.1C55.5039 21.94 56.7159 23.14 57.6039 24.7C58.4919 26.26 58.9359 28.048 58.9359 30.064C58.9359 32.08 58.4799 33.868 57.5679 35.428C56.6559 36.988 55.4079 38.2 53.8239 39.064C52.2639 39.904 50.5359 40.324 48.6399 40.324ZM48.6399 36.76C49.6959 36.76 50.6799 36.508 51.5919 36.004C52.5279 35.5 53.2839 34.744 53.8599 33.736C54.4359 32.728 54.7239 31.504 54.7239 30.064C54.7239 28.624 54.4479 27.412 53.8959 26.428C53.3439 25.42 52.6119 24.664 51.6999 24.16C50.7879 23.656 49.8039 23.404 48.7479 23.404C47.6919 23.404 46.7079 23.656 45.7959 24.16C44.9079 24.664 44.1999 25.42 43.6719 26.428C43.1439 27.412 42.8799 28.624 42.8799 30.064C42.8799 32.2 43.4199 33.856 44.4999 35.032C45.6039 36.184 46.9839 36.76 48.6399 36.76ZM67.097 23.044C67.697 22.036 68.489 21.256 69.473 20.704C70.481 20.128 71.669 19.84 73.037 19.84V24.088H71.993C70.385 24.088 69.161 24.496 68.321 25.312C67.505 26.128 67.097 27.544 67.097 29.56V40H62.993V20.164H67.097V23.044ZM86.8174 19.84C88.3774 19.84 89.7694 20.164 90.9934 20.812C92.2414 21.46 93.2134 22.42 93.9094 23.692C94.6054 24.964 94.9534 26.5 94.9534 28.3V40H90.8854V28.912C90.8854 27.136 90.4414 25.78 89.5534 24.844C88.6654 23.884 87.4534 23.404 85.9174 23.404C84.3814 23.404 83.1574 23.884 82.2454 24.844C81.3574 25.78 80.9134 27.136 80.9134 28.912V40H76.8094V20.164H80.9134V22.432C81.5854 21.616 82.4374 20.98 83.4694 20.524C84.5254 20.068 85.6414 19.84 86.8174 19.84Z" fill="white"/>
<line x1="112" y1="7" x2="112" y2="47" stroke="white" stroke-width="2"/>
<path d="M163.979 24H162.348L166.012 13.8182H167.787L171.451 24H169.82L166.942 15.6676H166.862L163.979 24ZM164.252 20.0128H169.542V21.3054H164.252V20.0128ZM177.639 20.8331V16.3636H179.131V24H177.669V22.6776H177.59C177.414 23.0852 177.132 23.425 176.744 23.6967C176.36 23.9652 175.881 24.0994 175.308 24.0994C174.817 24.0994 174.383 23.9917 174.005 23.7763C173.631 23.5575 173.336 23.2344 173.12 22.8068C172.908 22.3793 172.802 21.8506 172.802 21.2209V16.3636H174.289V21.0419C174.289 21.5623 174.433 21.9766 174.721 22.2848C175.009 22.593 175.384 22.7472 175.845 22.7472C176.123 22.7472 176.4 22.6776 176.675 22.5384C176.953 22.3991 177.184 22.1887 177.366 21.907C177.552 21.6252 177.643 21.2673 177.639 20.8331ZM184.693 16.3636V17.5568H180.522V16.3636H184.693ZM181.64 14.5341H183.127V21.7578C183.127 22.0462 183.17 22.2633 183.256 22.4091C183.342 22.5516 183.453 22.6494 183.589 22.7024C183.728 22.7521 183.879 22.777 184.042 22.777C184.161 22.777 184.265 22.7687 184.355 22.7521C184.444 22.7356 184.514 22.7223 184.564 22.7124L184.832 23.9403C184.746 23.9735 184.623 24.0066 184.464 24.0398C184.305 24.0762 184.106 24.0961 183.868 24.0994C183.476 24.1061 183.112 24.0365 182.774 23.8906C182.436 23.7448 182.162 23.5194 181.953 23.2145C181.745 22.9096 181.64 22.5268 181.64 22.0661V14.5341ZM187.988 19.4659V24H186.501V13.8182H187.968V17.6065H188.062C188.241 17.1955 188.515 16.8691 188.883 16.6271C189.251 16.3852 189.731 16.2642 190.324 16.2642C190.848 16.2642 191.305 16.3719 191.697 16.5874C192.091 16.8028 192.396 17.1243 192.611 17.5518C192.83 17.9761 192.939 18.5064 192.939 19.1428V24H191.453V19.3217C191.453 18.7616 191.309 18.3274 191.02 18.0192C190.732 17.7076 190.331 17.5518 189.817 17.5518C189.466 17.5518 189.151 17.6264 188.873 17.7756C188.598 17.9247 188.381 18.1435 188.221 18.4318C188.066 18.7169 187.988 19.0616 187.988 19.4659ZM198.14 24.1541C197.424 24.1541 196.799 23.9901 196.265 23.6619C195.732 23.3338 195.318 22.8748 195.023 22.2848C194.728 21.6948 194.58 21.0054 194.58 20.2166C194.58 19.4245 194.728 18.7318 195.023 18.1385C195.318 17.5452 195.732 17.0845 196.265 16.7564C196.799 16.4283 197.424 16.2642 198.14 16.2642C198.856 16.2642 199.48 16.4283 200.014 16.7564C200.548 17.0845 200.962 17.5452 201.257 18.1385C201.552 18.7318 201.699 19.4245 201.699 20.2166C201.699 21.0054 201.552 21.6948 201.257 22.2848C200.962 22.8748 200.548 23.3338 200.014 23.6619C199.48 23.9901 198.856 24.1541 198.14 24.1541ZM198.145 22.9062C198.609 22.9062 198.993 22.7836 199.298 22.5384C199.603 22.2931 199.828 21.9666 199.974 21.5589C200.123 21.1513 200.198 20.7022 200.198 20.2116C200.198 19.7244 200.123 19.277 199.974 18.8693C199.828 18.4583 199.603 18.1286 199.298 17.88C198.993 17.6314 198.609 17.5071 198.145 17.5071C197.677 17.5071 197.29 17.6314 196.981 17.88C196.676 18.1286 196.449 18.4583 196.3 18.8693C196.154 19.277 196.081 19.7244 196.081 20.2116C196.081 20.7022 196.154 21.1513 196.3 21.5589C196.449 21.9666 196.676 22.2931 196.981 22.5384C197.29 22.7836 197.677 22.9062 198.145 22.9062ZM203.359 24V16.3636H204.795V17.5767H204.875C205.014 17.1657 205.259 16.8426 205.611 16.6072C205.965 16.3686 206.366 16.2493 206.814 16.2493C206.907 16.2493 207.016 16.2526 207.142 16.2592C207.271 16.2659 207.372 16.2741 207.445 16.2841V17.706C207.386 17.6894 207.28 17.6712 207.127 17.6513C206.975 17.6281 206.822 17.6165 206.67 17.6165C206.318 17.6165 206.005 17.6911 205.73 17.8402C205.458 17.986 205.243 18.1899 205.084 18.4517C204.925 18.7102 204.845 19.0052 204.845 19.3366V24H203.359ZM208.732 24V16.3636H210.218V24H208.732ZM209.482 15.1854C209.224 15.1854 209.002 15.0992 208.816 14.9268C208.634 14.7512 208.543 14.5424 208.543 14.3004C208.543 14.0552 208.634 13.8464 208.816 13.674C209.002 13.4983 209.224 13.4105 209.482 13.4105C209.741 13.4105 209.961 13.4983 210.144 13.674C210.329 13.8464 210.422 14.0552 210.422 14.3004C210.422 14.5424 210.329 14.7512 210.144 14.9268C209.961 15.0992 209.741 15.1854 209.482 15.1854ZM212.059 24V22.9808L216.195 17.7259V17.6562H212.193V16.3636H218.05V17.4474L214.072 22.6378V22.7074H218.189V24H212.059ZM223.015 24.1541C222.263 24.1541 221.615 23.9934 221.071 23.6719C220.531 23.3471 220.113 22.8913 219.818 22.3047C219.527 21.7147 219.381 21.0237 219.381 20.2315C219.381 19.4493 219.527 18.7599 219.818 18.1634C220.113 17.5668 220.524 17.1011 221.051 16.7663C221.582 16.4316 222.201 16.2642 222.911 16.2642C223.342 16.2642 223.759 16.3355 224.164 16.478C224.568 16.6205 224.931 16.8442 225.252 17.1491C225.574 17.4541 225.827 17.8501 226.013 18.3374C226.199 18.8213 226.291 19.4096 226.291 20.1023V20.6293H220.221V19.5156H224.835C224.835 19.1245 224.755 18.7782 224.596 18.4766C224.437 18.1716 224.213 17.9313 223.925 17.7557C223.64 17.58 223.305 17.4922 222.921 17.4922C222.503 17.4922 222.138 17.5949 221.827 17.8004C221.519 18.0026 221.28 18.2678 221.111 18.5959C220.945 18.9207 220.862 19.2737 220.862 19.6548V20.5249C220.862 21.0353 220.952 21.4695 221.131 21.8274C221.313 22.1854 221.567 22.4588 221.892 22.6477C222.216 22.8333 222.596 22.9261 223.03 22.9261C223.312 22.9261 223.569 22.8864 223.801 22.8068C224.033 22.724 224.233 22.6013 224.402 22.4389C224.571 22.2765 224.7 22.076 224.79 21.8374L226.197 22.0909C226.084 22.5052 225.882 22.8681 225.59 23.1797C225.302 23.4879 224.939 23.7282 224.502 23.9006C224.067 24.0696 223.572 24.1541 223.015 24.1541ZM230.799 24.1491C230.183 24.1491 229.633 23.9917 229.149 23.6768C228.668 23.3587 228.29 22.9062 228.015 22.3196C227.743 21.7296 227.608 21.022 227.608 20.1967C227.608 19.3714 227.745 18.6655 228.02 18.0788C228.299 17.4922 228.68 17.0431 229.164 16.7315C229.648 16.42 230.196 16.2642 230.809 16.2642C231.283 16.2642 231.664 16.3438 231.953 16.5028C232.244 16.6586 232.47 16.8409 232.629 17.0497C232.791 17.2585 232.917 17.4425 233.007 17.6016H233.096V13.8182H234.583V24H233.131V22.8118H233.007C232.917 22.9742 232.788 23.1598 232.619 23.3686C232.453 23.5774 232.225 23.7597 231.933 23.9155C231.641 24.0713 231.263 24.1491 230.799 24.1491ZM231.127 22.8814C231.555 22.8814 231.916 22.7687 232.211 22.5433C232.51 22.3146 232.735 21.9981 232.887 21.5938C233.043 21.1894 233.121 20.7187 233.121 20.1818C233.121 19.6515 233.045 19.1875 232.892 18.7898C232.74 18.392 232.516 18.0821 232.221 17.8601C231.926 17.638 231.562 17.527 231.127 17.527C230.68 17.527 230.307 17.643 230.009 17.875C229.711 18.107 229.485 18.4235 229.333 18.8246C229.184 19.2256 229.109 19.678 229.109 20.1818C229.109 20.6922 229.185 21.1513 229.338 21.5589C229.49 21.9666 229.716 22.2898 230.014 22.5284C230.315 22.7637 230.687 22.8814 231.127 22.8814ZM163.119 41V30.8182H166.748C167.537 30.8182 168.191 30.9541 168.712 31.2259C169.235 31.4976 169.626 31.8738 169.885 32.3544C170.143 32.8317 170.273 33.3835 170.273 34.0099C170.273 34.633 170.142 35.1816 169.88 35.6555C169.621 36.1262 169.23 36.4924 168.707 36.7543C168.186 37.0161 167.532 37.147 166.743 37.147H163.994V35.8246H166.604C167.101 35.8246 167.505 35.7533 167.817 35.6108C168.132 35.4683 168.362 35.2611 168.508 34.9893C168.654 34.7176 168.727 34.3911 168.727 34.0099C168.727 33.6255 168.652 33.2924 168.503 33.0107C168.357 32.7289 168.127 32.5135 167.812 32.3643C167.5 32.2119 167.091 32.1357 166.584 32.1357H164.655V41H163.119ZM168.145 36.4062L170.661 41H168.911L166.445 36.4062H168.145ZM175.218 41.1541C174.466 41.1541 173.818 40.9934 173.274 40.6719C172.734 40.3471 172.316 39.8913 172.021 39.3047C171.73 38.7147 171.584 38.0237 171.584 37.2315C171.584 36.4493 171.73 35.7599 172.021 35.1634C172.316 34.5668 172.727 34.1011 173.254 33.7663C173.785 33.4316 174.405 33.2642 175.114 33.2642C175.545 33.2642 175.962 33.3355 176.367 33.478C176.771 33.6205 177.134 33.8442 177.455 34.1491C177.777 34.4541 178.03 34.8501 178.216 35.3374C178.402 35.8213 178.494 36.4096 178.494 37.1023V37.6293H172.424V36.5156H177.038C177.038 36.1245 176.958 35.7782 176.799 35.4766C176.64 35.1716 176.416 34.9313 176.128 34.7557C175.843 34.58 175.508 34.4922 175.124 34.4922C174.706 34.4922 174.342 34.5949 174.03 34.8004C173.722 35.0026 173.483 35.2678 173.314 35.5959C173.148 35.9207 173.066 36.2737 173.066 36.6548V37.5249C173.066 38.0353 173.155 38.4695 173.334 38.8274C173.516 39.1854 173.77 39.4588 174.095 39.6477C174.419 39.8333 174.799 39.9261 175.233 39.9261C175.515 39.9261 175.772 39.8864 176.004 39.8068C176.236 39.724 176.436 39.6013 176.605 39.4389C176.774 39.2765 176.904 39.076 176.993 38.8374L178.4 39.0909C178.287 39.5052 178.085 39.8681 177.794 40.1797C177.505 40.4879 177.142 40.7282 176.705 40.9006C176.271 41.0696 175.775 41.1541 175.218 41.1541ZM185.866 35.228L184.519 35.4666C184.462 35.2943 184.373 35.1302 184.25 34.9744C184.131 34.8187 183.969 34.6911 183.763 34.5916C183.558 34.4922 183.301 34.4425 182.993 34.4425C182.572 34.4425 182.22 34.5369 181.939 34.7259C181.657 34.9115 181.516 35.1518 181.516 35.4467C181.516 35.7019 181.61 35.9074 181.799 36.0632C181.988 36.219 182.293 36.3466 182.714 36.446L183.927 36.7244C184.63 36.8868 185.154 37.1371 185.498 37.4751C185.843 37.8132 186.015 38.2524 186.015 38.7926C186.015 39.25 185.883 39.6577 185.618 40.0156C185.356 40.3703 184.989 40.6487 184.519 40.8509C184.051 41.053 183.51 41.1541 182.893 41.1541C182.038 41.1541 181.34 40.9718 180.8 40.6072C180.26 40.2393 179.928 39.7173 179.806 39.0412L181.243 38.8224C181.332 39.197 181.516 39.4804 181.794 39.6726C182.073 39.8615 182.436 39.956 182.883 39.956C183.37 39.956 183.76 39.8549 184.051 39.6527C184.343 39.4472 184.489 39.197 184.489 38.902C184.489 38.6634 184.4 38.4628 184.221 38.3004C184.045 38.138 183.775 38.0154 183.41 37.9325L182.118 37.6491C181.405 37.4867 180.878 37.2282 180.537 36.8736C180.199 36.5189 180.029 36.0698 180.029 35.5263C180.029 35.0755 180.155 34.6811 180.407 34.343C180.659 34.005 181.007 33.7415 181.451 33.5526C181.895 33.3603 182.404 33.2642 182.978 33.2642C183.803 33.2642 184.453 33.4432 184.926 33.8011C185.4 34.1558 185.714 34.6314 185.866 35.228ZM190.941 41.1541C190.189 41.1541 189.541 40.9934 188.997 40.6719C188.457 40.3471 188.039 39.8913 187.744 39.3047C187.452 38.7147 187.307 38.0237 187.307 37.2315C187.307 36.4493 187.452 35.7599 187.744 35.1634C188.039 34.5668 188.45 34.1011 188.977 33.7663C189.507 33.4316 190.127 33.2642 190.836 33.2642C191.267 33.2642 191.685 33.3355 192.089 33.478C192.494 33.6205 192.857 33.8442 193.178 34.1491C193.5 34.4541 193.753 34.8501 193.939 35.3374C194.124 35.8213 194.217 36.4096 194.217 37.1023V37.6293H188.147V36.5156H192.76C192.76 36.1245 192.681 35.7782 192.522 35.4766C192.363 35.1716 192.139 34.9313 191.851 34.7557C191.566 34.58 191.231 34.4922 190.846 34.4922C190.429 34.4922 190.064 34.5949 189.753 34.8004C189.444 35.0026 189.206 35.2678 189.037 35.5959C188.871 35.9207 188.788 36.2737 188.788 36.6548V37.5249C188.788 38.0353 188.878 38.4695 189.057 38.8274C189.239 39.1854 189.492 39.4588 189.817 39.6477C190.142 39.8333 190.522 39.9261 190.956 39.9261C191.238 39.9261 191.494 39.8864 191.726 39.8068C191.958 39.724 192.159 39.6013 192.328 39.4389C192.497 39.2765 192.626 39.076 192.716 38.8374L194.123 39.0909C194.01 39.5052 193.808 39.8681 193.516 40.1797C193.228 40.4879 192.865 40.7282 192.427 40.9006C191.993 41.0696 191.498 41.1541 190.941 41.1541ZM197.353 30.8182V41H195.866V30.8182H197.353ZM200.839 30.8182V41H199.353V30.8182H200.839ZM206.13 41.1541C205.378 41.1541 204.73 40.9934 204.186 40.6719C203.646 40.3471 203.229 39.8913 202.934 39.3047C202.642 38.7147 202.496 38.0237 202.496 37.2315C202.496 36.4493 202.642 35.7599 202.934 35.1634C203.229 34.5668 203.64 34.1011 204.167 33.7663C204.697 33.4316 205.317 33.2642 206.026 33.2642C206.457 33.2642 206.874 33.3355 207.279 33.478C207.683 33.6205 208.046 33.8442 208.368 34.1491C208.689 34.4541 208.943 34.8501 209.128 35.3374C209.314 35.8213 209.407 36.4096 209.407 37.1023V37.6293H203.336V36.5156H207.95C207.95 36.1245 207.87 35.7782 207.711 35.4766C207.552 35.1716 207.328 34.9313 207.04 34.7557C206.755 34.58 206.42 34.4922 206.036 34.4922C205.618 34.4922 205.254 34.5949 204.942 34.8004C204.634 35.0026 204.395 35.2678 204.226 35.5959C204.06 35.9207 203.978 36.2737 203.978 36.6548V37.5249C203.978 38.0353 204.067 38.4695 204.246 38.8274C204.428 39.1854 204.682 39.4588 205.007 39.6477C205.332 39.8333 205.711 39.9261 206.145 39.9261C206.427 39.9261 206.684 39.8864 206.916 39.8068C207.148 39.724 207.348 39.6013 207.517 39.4389C207.686 39.2765 207.816 39.076 207.905 38.8374L209.312 39.0909C209.199 39.5052 208.997 39.8681 208.706 40.1797C208.417 40.4879 208.054 40.7282 207.617 40.9006C207.183 41.0696 206.687 41.1541 206.13 41.1541ZM211.056 41V33.3636H212.493V34.5767H212.572C212.711 34.1657 212.957 33.8426 213.308 33.6072C213.663 33.3686 214.064 33.2493 214.511 33.2493C214.604 33.2493 214.713 33.2526 214.839 33.2592C214.969 33.2659 215.07 33.2741 215.143 33.2841V34.706C215.083 34.6894 214.977 34.6712 214.824 34.6513C214.672 34.6281 214.519 34.6165 214.367 34.6165C214.016 34.6165 213.702 34.6911 213.427 34.8402C213.156 34.986 212.94 35.1899 212.781 35.4517C212.622 35.7102 212.542 36.0052 212.542 36.3366V41H211.056Z" fill="white"/>
<path d="M149.912 20.9313C149.72 21.0901 146.354 23.1089 146.354 27.6001C146.354 32.7946 150.637 34.632 150.765 34.6772C150.743 34.7905 150.083 37.195 148.506 39.6448C147.1 41.7998 145.629 43.9545 143.392 43.9545C141.154 43.9545 140.579 42.5709 138 42.5709C135.486 42.5709 134.591 44 132.545 44C130.499 44 129.072 42.0038 127.431 39.5541C125.534 36.6732 124 32.2046 124 27.9629C124 21.158 128.155 17.5512 132.247 17.5512C134.42 17.5512 136.231 19.0711 137.595 19.0711C138.895 19.0711 140.92 17.4605 143.391 17.4605C144.329 17.4607 147.696 17.5517 149.912 20.9313ZM142.22 14.5801C143.242 13.2871 143.967 11.4952 143.967 9.70325C143.967 9.45375 143.946 9.20425 143.903 9C142.241 9.06808 140.259 10.1796 139.066 11.654C138.128 12.7882 137.254 14.5801 137.254 16.3949C137.254 16.667 137.297 16.9394 137.318 17.0301C137.425 17.0527 137.595 17.0755 137.766 17.0755C139.258 17.0753 141.133 16.0092 142.22 14.5801Z" fill="white"/>
</svg>
