<svg width="23" height="27" viewBox="0 0 23 27" fill="none" xmlns="http://www.w3.org/2000/svg">
<path fill-rule="evenodd" clip-rule="evenodd" d="M20.3077 22.575C20.3077 23.625 19.4615 24.5 18.4462 24.5H3.55385C2.53846 24.5 1.69231 23.625 1.69231 22.575V8.75C1.69231 7.875 2.53846 7 3.55385 7H18.6154C19.6308 7 20.4769 7.875 20.4769 8.925V22.575H20.3077ZM11 1.75C13.0308 1.75 14.5538 3.325 14.8923 5.25H7.10769C7.44615 3.325 8.96923 1.75 11 1.75ZM18.4462 5.25H16.5846C16.2462 2.275 13.8769 0 11 0C8.12308 0 5.75385 2.275 5.41538 5.25H3.55385C1.52308 5.25 0 6.825 0 8.925V22.75C0 24.675 1.52308 26.25 3.55385 26.25H18.6154C20.4769 26.25 22.1692 24.675 22.1692 22.575V8.75C22 6.825 20.4769 5.25 18.4462 5.25Z" fill="white"/>
</svg>
