<svg width="62" height="65" viewBox="0 0 62 65" fill="none" xmlns="http://www.w3.org/2000/svg">
<path d="M57.2224 12.9784L35.34 1.10296C34.0072 0.379079 32.5155 0 31 0C29.4845 0 27.9928 0.379079 26.66 1.10296L4.77765 12.9784C3.33195 13.7635 2.1247 14.9263 1.28366 16.3436C0.442624 17.7609 -0.000910348 19.38 1.40285e-06 21.0295V43.9715C-0.000554854 45.6214 0.443528 47.2407 1.28523 48.6581C2.12693 50.0754 3.33492 51.2379 4.78129 52.0226L26.6636 63.898C27.996 64.6213 29.487 65 31.0018 65C32.5167 65 34.0076 64.6213 35.34 63.898L57.2224 52.0226C58.668 51.2375 59.8753 50.0747 60.7163 48.6574C61.5574 47.2401 62.0009 45.621 62 43.9715V21.0295C62.0009 19.38 61.5574 17.7609 60.7163 16.3436C59.8753 14.9263 58.668 13.7635 57.2224 12.9784V12.9784ZM28.4106 4.3234C29.209 3.88715 30.1036 3.65859 31.0128 3.65859C31.9219 3.65859 32.8165 3.88715 33.6149 4.3234L55.4973 16.1951C55.6893 16.3173 55.8732 16.4518 56.048 16.5977L45.3585 22.6909L20.7664 8.46973L28.4106 4.3234ZM16.9989 10.5118L41.6822 24.7842L31 30.8811L5.96659 16.6087C6.14138 16.4628 6.32533 16.3283 6.5173 16.2061L16.9989 10.5118ZM6.5173 48.7949C5.64974 48.3245 4.92501 47.6277 4.41976 46.778C3.91451 45.9283 3.64753 44.9573 3.64706 43.9679V21.0295C3.64874 20.5473 3.71373 20.0674 3.84035 19.6022L29.1765 34.0503V60.9777C28.91 60.8969 28.6503 60.7954 28.3996 60.6739L6.5173 48.7949ZM58.3529 43.9679C58.3528 44.9569 58.0864 45.9276 57.5818 46.7773C57.0772 47.627 56.3532 48.3241 55.4864 48.7949L33.604 60.6703C33.3521 60.7926 33.0911 60.8954 32.8235 60.9777V34.0503L58.1596 19.5986C58.2863 20.065 58.3512 20.5461 58.3529 21.0295V43.9679Z" fill="black"/>
</svg>
