<svg width="129" height="129" viewBox="0 0 129 129" fill="none" xmlns="http://www.w3.org/2000/svg">
<path d="M0 129L0 83.5L82.5 0H129L0 129Z" fill="#FF0000"/>
<path d="M35.9363 61.8867C36.4904 62.4408 36.8612 63.0192 37.0487 63.6218C37.2362 64.2211 37.2563 64.8037 37.109 65.3695C36.9633 65.9336 36.6654 66.4409 36.2151 66.8912C35.7647 67.3415 35.2567 67.6403 34.6909 67.7876C34.125 67.9316 33.5416 67.9107 32.9407 67.7248C32.3397 67.5357 31.763 67.1649 31.2106 66.6125C30.6565 66.0584 30.2857 65.4817 30.0982 64.8824C29.9107 64.2797 29.8898 63.6963 30.0354 63.1322C30.1827 62.5663 30.4815 62.0583 30.9318 61.608C31.3822 61.1577 31.8894 60.8597 32.4535 60.714C33.0194 60.5667 33.6027 60.5877 34.2037 60.7768C34.8047 60.9626 35.3822 61.3326 35.9363 61.8867ZM34.9997 62.8233C34.6097 62.4333 34.2196 62.1654 33.8296 62.0198C33.4395 61.8708 33.0687 61.8348 32.7172 61.9118C32.364 61.9871 32.0476 62.1646 31.768 62.4441C31.4885 62.7237 31.311 63.0401 31.2357 63.3933C31.1587 63.7449 31.1938 64.1165 31.3411 64.5082C31.4885 64.8966 31.7571 65.2858 32.1472 65.6758C32.5372 66.0659 32.9273 66.3354 33.3173 66.4844C33.7074 66.63 34.079 66.6652 34.4322 66.5899C34.7838 66.5129 35.0993 66.3346 35.3789 66.055C35.6584 65.7754 35.8367 65.4599 35.9137 65.1083C35.9891 64.7551 35.9531 64.3843 35.8058 63.996C35.6584 63.6042 35.3898 63.2134 34.9997 62.8233ZM38.4718 54.2086L43.6144 59.3512L42.7858 60.1798L36.8598 59.1001L36.8171 59.1428L40.32 62.6457L39.3884 63.5772L34.2458 58.4347L35.0794 57.601L41.0055 58.6858L41.0507 58.6406L37.5453 55.1352L38.4718 54.2086ZM44.6295 58.3361L39.4869 53.1935L40.4185 52.2619L44.7802 56.6236L47.0451 54.3586L47.8261 55.1395L44.6295 58.3361ZM42.6226 50.0578L43.6747 49.0057L47.2077 50.0227L47.258 49.9725L46.241 46.4394L47.2931 45.3873L48.6466 50.4822L50.565 52.4006L49.6359 53.3297L47.7175 51.4113L42.6226 50.0578ZM54.8494 48.1162L49.7068 42.9736L53.0013 39.6791L53.7822 40.4601L51.4194 42.8229L52.8155 44.2191L54.9524 42.0822L55.7333 42.8631L53.5964 45L55.781 47.1846L54.8494 48.1162ZM61.0165 36.8065C61.5706 37.3606 61.9414 37.939 62.1289 38.5416C62.3164 39.1409 62.3365 39.7235 62.1892 40.2893C62.0435 40.8534 61.7456 41.3607 61.2953 41.811C60.8449 42.2613 60.3369 42.5601 59.7711 42.7074C59.2052 42.8514 58.6218 42.8305 58.0209 42.6447C57.4199 42.4555 56.8432 42.0847 56.2908 41.5323C55.7367 40.9782 55.3659 40.4015 55.1784 39.8022C54.9909 39.1995 54.97 38.6161 55.1156 38.052C55.2629 37.4862 55.5617 36.9781 56.012 36.5278C56.4624 36.0775 56.9696 35.7795 57.5337 35.6338C58.0995 35.4865 58.6829 35.5075 59.2839 35.6966C59.8849 35.8824 60.4624 36.2524 61.0165 36.8065ZM60.0799 37.7431C59.6899 37.3531 59.2998 37.0852 58.9098 36.9396C58.5197 36.7906 58.1489 36.7546 57.7974 36.8316C57.4442 36.9069 57.1278 37.0844 56.8482 37.3639C56.5687 37.6435 56.3912 37.9599 56.3159 38.3131C56.2389 38.6647 56.274 39.0363 56.4213 39.428C56.5687 39.8164 56.8373 40.2056 57.2274 40.5956C57.6174 40.9857 58.0075 41.2552 58.3975 41.4042C58.7876 41.5498 59.1592 41.585 59.5124 41.5097C59.864 41.4327 60.1795 41.2544 60.4591 40.9748C60.7386 40.6953 60.9169 40.3797 60.9939 40.0282C61.0693 39.6749 61.0333 39.3041 60.886 38.9158C60.7386 38.524 60.47 38.1332 60.0799 37.7431ZM64.4686 38.4971L59.326 33.3545L61.2544 31.426C61.6495 31.0309 62.0496 30.7681 62.4547 30.6375C62.8615 30.5053 63.2574 30.4944 63.6424 30.6049C64.0275 30.712 64.384 30.9296 64.7121 31.2577C65.0419 31.5875 65.2579 31.9441 65.36 32.3274C65.4621 32.7074 65.4437 33.0992 65.3047 33.5026C65.1641 33.9044 64.8963 34.3028 64.5012 34.6979L63.1277 36.0714L62.3543 35.298L63.6023 34.05C63.8333 33.819 63.9906 33.598 64.0743 33.3871C64.1564 33.1745 64.1706 32.9711 64.117 32.7769C64.0635 32.5794 63.9454 32.3894 63.763 32.2069C63.5805 32.0244 63.3888 31.9048 63.1879 31.8478C62.9854 31.7892 62.777 31.8001 62.5627 31.8805C62.3467 31.9592 62.1224 32.1148 61.8897 32.3475L61.036 33.2013L65.4002 37.5655L64.4686 38.4971ZM64.795 33.5101L68.3983 34.5673L67.3588 35.6069L63.778 34.5271L64.795 33.5101ZM10.8083 109.128L9.06565 110.871L3.92305 105.728L5.70087 103.95C6.21144 103.44 6.75299 103.104 7.3255 102.943C7.89802 102.779 8.47472 102.79 9.0556 102.976C9.63649 103.162 10.1939 103.522 10.728 104.056C11.2636 104.591 11.6244 105.151 11.8102 105.735C11.9977 106.318 12.0077 106.899 11.8403 107.478C11.6746 108.056 11.3306 108.606 10.8083 109.128ZM9.1912 109.133L9.95707 108.367C10.3153 108.009 10.5488 107.645 10.6576 107.275C10.7648 106.903 10.748 106.526 10.6074 106.145C10.4651 105.761 10.1973 105.373 9.80389 104.98C9.4105 104.586 9.0238 104.32 8.6438 104.181C8.26212 104.041 7.88881 104.024 7.52388 104.131C7.15894 104.235 6.80237 104.461 6.45418 104.809L5.66069 105.602L9.1912 109.133ZM14.1894 105.747L9.04682 100.604L12.3915 97.2595L13.1724 98.0404L10.7593 100.454L12.1555 101.85L14.3953 99.6098L15.1762 100.391L12.9364 102.631L14.3401 104.034L16.7733 101.601L17.5542 102.382L14.1894 105.747ZM13.3419 96.3091L14.4819 95.169L19.735 97.3687L19.7953 97.3084L17.5956 92.0554L18.7356 90.9154L23.8782 96.058L22.9843 96.9519L19.4513 93.4189L19.4036 93.4666L21.5003 98.4058L20.8323 99.0737L15.8856 96.9695L15.8379 97.0172L19.3785 100.558L18.4845 101.452L13.3419 96.3091ZM26.9166 87.877C27.4707 88.4311 27.8415 89.0095 28.029 89.6121C28.2165 90.2114 28.2365 90.794 28.0892 91.3598C27.9436 91.924 27.6456 92.4312 27.1953 92.8815C26.745 93.3318 26.2369 93.6306 25.6711 93.7779C25.1053 93.9219 24.5219 93.901 23.9209 93.7152C23.3199 93.526 22.7432 93.1552 22.1908 92.6028C21.6367 92.0487 21.2659 91.472 21.0784 90.8727C20.8909 90.27 20.87 89.6866 21.0157 89.1225C21.163 88.5567 21.4618 88.0486 21.9121 87.5983C22.3624 87.148 22.8696 86.85 23.4338 86.7044C23.9996 86.557 24.583 86.578 25.184 86.7671C25.7849 86.9529 26.3625 87.3229 26.9166 87.877ZM25.98 88.8136C25.5899 88.4236 25.1999 88.1557 24.8098 88.0101C24.4198 87.8611 24.049 87.8251 23.6974 87.9021C23.3442 87.9775 23.0278 88.1549 22.7483 88.4345C22.4687 88.714 22.2913 89.0304 22.2159 89.3836C22.1389 89.7352 22.1741 90.1068 22.3214 90.4985C22.4687 90.8869 22.7374 91.2761 23.1274 91.6662C23.5175 92.0562 23.9075 92.3257 24.2976 92.4747C24.6876 92.6204 25.0593 92.6555 25.4125 92.5802C25.764 92.5032 26.0796 92.3249 26.3591 92.0453C26.6387 91.7658 26.817 91.4502 26.894 91.0987C26.9693 90.7454 26.9333 90.3747 26.786 89.9863C26.6387 89.5946 26.37 89.2037 25.98 88.8136ZM29.4521 80.1989L34.5947 85.3415L33.766 86.1701L27.84 85.0904L27.7973 85.1331L31.3002 88.636L30.3686 89.5676L25.226 84.425L26.0597 83.5913L31.9857 84.6761L32.0309 84.6309L28.5255 81.1255L29.4521 80.1989ZM34.6757 77.8027C34.4329 77.6069 34.1634 77.5349 33.8671 77.5868C33.5725 77.637 33.2871 77.8002 33.0109 78.0764C32.8167 78.2706 32.6794 78.4665 32.599 78.664C32.5187 78.8616 32.4919 79.0474 32.5187 79.2215C32.5455 79.3956 32.6225 79.5479 32.7497 79.6785C32.8568 79.7856 32.974 79.8543 33.1013 79.8844C33.2302 79.9129 33.3649 79.912 33.5055 79.8819C33.6445 79.8501 33.7843 79.8007 33.9249 79.7337C34.0655 79.6668 34.2011 79.5931 34.3317 79.5128L34.9343 79.1512C35.1737 79.0022 35.4214 78.8766 35.6776 78.7745C35.9354 78.6707 36.194 78.6063 36.4535 78.5812C36.7146 78.5544 36.9699 78.582 37.2193 78.664C37.4688 78.7461 37.7048 78.8984 37.9275 79.121C38.2288 79.4224 38.4171 79.7647 38.4924 80.1481C38.5661 80.5297 38.5217 80.9307 38.3594 81.3508C38.197 81.7677 37.9099 82.182 37.4981 82.5938C37.098 82.9939 36.6887 83.2793 36.2702 83.4501C35.8533 83.6191 35.4432 83.6677 35.0398 83.5957C34.638 83.522 34.2597 83.3212 33.9048 82.9931L34.8213 82.0765C35.0138 82.2423 35.2181 82.336 35.434 82.3578C35.65 82.3795 35.8651 82.3419 36.0793 82.2448C36.2953 82.146 36.5004 81.9995 36.6945 81.8053C36.8971 81.6028 37.0444 81.3952 37.1365 81.1826C37.2286 80.9666 37.2637 80.7607 37.2419 80.5649C37.2185 80.3673 37.134 80.1941 36.9883 80.0451C36.8527 79.9129 36.7029 79.8417 36.5389 79.8317C36.3731 79.8199 36.1915 79.8543 35.994 79.9346C35.7964 80.0116 35.5822 80.1188 35.3511 80.256L34.6154 80.6904C34.0831 81.0052 33.5834 81.1751 33.1163 81.2002C32.6493 81.2219 32.2316 81.0487 31.8633 80.6804C31.5603 80.3774 31.377 80.03 31.3134 79.6383C31.2515 79.2449 31.3 78.8432 31.459 78.433C31.6164 78.0212 31.875 77.6353 32.2349 77.2754C32.5999 76.9105 32.9832 76.6544 33.385 76.5071C33.7868 76.3564 34.1785 76.3145 34.5602 76.3815C34.9402 76.4468 35.2775 76.6217 35.5721 76.9063L34.6757 77.8027ZM35.6142 75.5987L34.8332 74.8178L38.9363 70.7147L39.7172 71.4957L38.1277 73.0851L42.4894 77.4468L41.5653 78.3709L37.2037 74.0092L35.6142 75.5987ZM44.8698 75.0663L39.7272 69.9238L41.6557 67.9953C42.0508 67.6002 42.4509 67.3374 42.856 67.2068C43.2628 67.0746 43.6587 67.0637 44.0437 67.1742C44.4287 67.2813 44.7853 67.4989 45.1134 67.827C45.4432 68.1568 45.6591 68.5134 45.7613 68.8967C45.8634 69.2767 45.845 69.6685 45.706 70.0719C45.5654 70.4737 45.2975 70.8721 44.9025 71.2672L43.5289 72.6407L42.7555 71.8673L44.0035 70.6193C44.2345 70.3883 44.3919 70.1673 44.4756 69.9564C44.5576 69.7438 44.5719 69.5404 44.5183 69.3462C44.4647 69.1487 44.3467 68.9587 44.1642 68.7762C43.9818 68.5937 43.7901 68.4741 43.5892 68.4171C43.3867 68.3585 43.1782 68.3694 42.964 68.4498C42.748 68.5285 42.5237 68.6841 42.291 68.9168L41.4373 69.7706L45.8014 74.1348L44.8698 75.0663ZM45.1963 70.0794L48.7996 71.1366L47.76 72.1762L44.1793 71.0964L45.1963 70.0794ZM50.1292 69.807L49.1348 70.8014L45.8027 63.8483L46.9527 62.6983L53.9083 66.0279L52.9139 67.0223L47.4524 64.3078L47.4123 64.348L50.1292 69.807ZM48.1455 67.758L50.8574 65.0461L51.6057 65.7944L48.8938 68.5063L48.1455 67.758ZM49.3765 61.8363L48.5956 61.0554L52.6986 56.9524L53.4795 57.7333L51.8901 59.3228L56.2517 63.6845L55.3277 64.6085L50.966 60.2469L49.3765 61.8363ZM54.4212 55.2298L59.5638 60.3724L58.6322 61.304L53.4896 56.1614L54.4212 55.2298ZM62.5965 52.1971C63.1506 52.7512 63.5214 53.3296 63.7089 53.9322C63.8963 54.5315 63.9164 55.1141 63.7691 55.6799C63.6235 56.2441 63.3255 56.7513 62.8752 57.2016C62.4249 57.6519 61.9168 57.9507 61.351 58.098C60.7852 58.242 60.2018 58.2211 59.6008 58.0353C58.9998 57.8461 58.4231 57.4753 57.8707 56.9229C57.3166 56.3688 56.9458 55.7921 56.7583 55.1928C56.5708 54.5901 56.5499 54.0067 56.6955 53.4426C56.8429 52.8768 57.1417 52.3687 57.592 51.9184C58.0423 51.4681 58.5495 51.1701 59.1137 51.0245C59.6795 50.8772 60.2629 50.8981 60.8639 51.0872C61.4648 51.2731 62.0424 51.643 62.5965 52.1971ZM61.6599 53.1337C61.2698 52.7437 60.8798 52.4758 60.4897 52.3302C60.0997 52.1812 59.7289 52.1452 59.3773 52.2222C59.0241 52.2976 58.7077 52.475 58.4282 52.7546C58.1486 53.0341 57.9711 53.3505 57.8958 53.7037C57.8188 54.0553 57.854 54.4269 58.0013 54.8186C58.1486 55.207 58.4173 55.5962 58.8073 55.9863C59.1974 56.3763 59.5874 56.6458 59.9775 56.7948C60.3675 56.9405 60.7391 56.9756 61.0924 56.9003C61.4439 56.8233 61.7595 56.645 62.039 56.3654C62.3186 56.0859 62.4969 55.7703 62.5739 55.4188C62.6492 55.0656 62.6132 54.6948 62.4659 54.3064C62.3186 53.9147 62.0499 53.5238 61.6599 53.1337ZM65.132 44.519L70.2746 49.6616L69.4459 50.4902L63.5199 49.4105L63.4772 49.4532L66.9801 52.9561L66.0485 53.8877L60.9059 48.7451L61.7396 47.9114L67.6656 48.9962L67.7108 48.951L64.2054 45.4456L65.132 44.519ZM73.0436 46.8926L67.901 41.75L69.8295 39.8215C70.2246 39.4264 70.6297 39.1686 71.0448 39.0481C71.4617 38.9259 71.8676 38.9251 72.2627 39.0456C72.6578 39.1628 73.0185 39.3846 73.3449 39.711C73.6747 40.0408 73.8982 40.4032 74.0154 40.7983C74.1326 41.1934 74.1292 41.6001 74.0053 42.0186C73.8798 42.4355 73.6186 42.8423 73.2219 43.239L71.9438 44.5171L71.1779 43.7513L72.3305 42.5987C72.5615 42.3677 72.7105 42.1383 72.7775 41.9107C72.8444 41.683 72.8427 41.4637 72.7724 41.2528C72.7038 41.0402 72.5782 40.8426 72.3958 40.6602C72.2133 40.4777 72.0166 40.353 71.8057 40.286C71.5964 40.2174 71.3788 40.2191 71.1528 40.2911C70.9268 40.3597 70.6975 40.5104 70.4648 40.743L69.611 41.5968L73.9752 45.961L73.0436 46.8926ZM75.6934 33.9576L76.625 33.026L79.9847 36.3858C80.353 36.7541 80.5899 37.165 80.6954 37.6187C80.8025 38.0707 80.7782 38.5319 80.6225 39.0023C80.4652 39.471 80.1773 39.9146 79.7587 40.3331C79.3386 40.7533 78.8941 41.0421 78.4254 41.1994C77.955 41.3551 77.4938 41.3794 77.0418 41.2722C76.5898 41.1651 76.1797 40.9274 75.8114 40.5591L72.4516 37.1994L73.3832 36.2678L76.6652 39.5497C76.8794 39.764 77.1171 39.9079 77.3783 39.9816C77.6411 40.0536 77.9064 40.051 78.1743 39.974C78.4405 39.8954 78.6916 39.738 78.9276 39.502C79.1636 39.2659 79.321 39.0148 79.3997 38.7487C79.4784 38.4791 79.4809 38.2138 79.4072 37.9527C79.3335 37.6915 79.1896 37.4538 78.9753 37.2395L75.6934 33.9576ZM82.7801 37.156L77.6376 32.0134L79.566 30.085C79.9611 29.6899 80.3612 29.4271 80.7663 29.2965C81.1731 29.1643 81.569 29.1534 81.954 29.2639C82.339 29.371 82.6956 29.5886 83.0237 29.9167C83.3535 30.2465 83.5695 30.6031 83.6716 30.9864C83.7737 31.3664 83.7553 31.7582 83.6163 32.1616C83.4757 32.5634 83.2079 32.9618 82.8128 33.3568L81.4393 34.7304L80.6659 33.957L81.9138 32.709C82.1449 32.478 82.3022 32.257 82.3859 32.0461C82.4679 31.8335 82.4822 31.6301 82.4286 31.4359C82.375 31.2384 82.257 31.0484 82.0745 30.8659C81.8921 30.6834 81.7004 30.5637 81.4995 30.5068C81.297 30.4482 81.0885 30.4591 80.8743 30.5395C80.6583 30.6181 80.434 30.7738 80.2013 31.0065L79.3476 31.8603L83.7117 36.2244L82.7801 37.156ZM83.1066 32.1691L86.7099 33.2263L85.6703 34.2658L82.0896 33.1861L83.1066 32.1691ZM87.3791 32.5571L82.2365 27.4145L84.165 25.486C84.5601 25.0909 84.9652 24.8331 85.3803 24.7126C85.7972 24.5904 86.2031 24.5896 86.5982 24.7101C86.9932 24.8273 87.354 25.0491 87.6804 25.3755C88.0102 25.7053 88.2337 26.0677 88.3509 26.4628C88.4681 26.8579 88.4647 27.2647 88.3408 27.6832C88.2153 28.1 87.9541 28.5068 87.5574 28.9035L86.2793 30.1816L85.5134 29.4158L86.666 28.2632C86.897 28.0322 87.046 27.8029 87.1129 27.5752C87.1799 27.3475 87.1782 27.1282 87.1079 26.9173C87.0393 26.7047 86.9137 26.5072 86.7313 26.3247C86.5488 26.1422 86.3521 26.0175 86.1412 25.9506C85.9319 25.8819 85.7143 25.8836 85.4883 25.9556C85.2623 26.0242 85.033 26.1749 84.8003 26.4076L83.9465 27.2613L88.3107 31.6255L87.3791 32.5571ZM93.9536 20.84C94.5077 21.3941 94.8785 21.9724 95.066 22.5751C95.2535 23.1744 95.2736 23.757 95.1263 24.3228C94.9806 24.8869 94.6827 25.3941 94.2323 25.8445C93.782 26.2948 93.274 26.5936 92.7081 26.7409C92.1423 26.8849 91.5589 26.8639 90.958 26.6781C90.357 26.489 89.7803 26.1182 89.2279 25.5657C88.6738 25.0116 88.303 24.4349 88.1155 23.8356C87.928 23.233 87.907 22.6496 88.0527 22.0854C88.2 21.5196 88.4988 21.0116 88.9491 20.5612C89.3994 20.1109 89.9067 19.813 90.4708 19.6673C91.0366 19.52 91.62 19.5409 92.221 19.7301C92.822 19.9159 93.3995 20.2859 93.9536 20.84ZM93.017 21.7766C92.627 21.3865 92.2369 21.1187 91.8469 20.9731C91.4568 20.8241 91.086 20.7881 90.7345 20.8651C90.3813 20.9404 90.0649 21.1179 89.7853 21.3974C89.5057 21.677 89.3283 21.9934 89.253 22.3466C89.176 22.6981 89.2111 23.0698 89.3584 23.4615C89.5057 23.8499 89.7744 24.2391 90.1645 24.6291C90.5545 25.0192 90.9446 25.2887 91.3346 25.4377C91.7247 25.5833 92.0963 25.6185 92.4495 25.5431C92.8011 25.4661 93.1166 25.2878 93.3962 25.0083C93.6757 24.7287 93.854 24.4132 93.931 24.0616C94.0063 23.7084 93.9704 23.3376 93.823 22.9492C93.6757 22.5575 93.407 22.1666 93.017 21.7766ZM96.4716 16.0069C96.2288 15.811 95.9593 15.739 95.663 15.7909C95.3684 15.8411 95.083 16.0044 94.8067 16.2806C94.6126 16.4748 94.4753 16.6706 94.3949 16.8681C94.3146 17.0657 94.2878 17.2515 94.3146 17.4256C94.3414 17.5997 94.4184 17.752 94.5456 17.8826C94.6527 17.9897 94.7699 18.0584 94.8971 18.0885C95.026 18.117 95.1608 18.1161 95.3014 18.086C95.4404 18.0542 95.5801 18.0048 95.7208 17.9378C95.8614 17.8709 95.997 17.7972 96.1275 17.7169L96.7302 17.3553C96.9696 17.2063 97.2173 17.0807 97.4735 16.9786C97.7313 16.8748 97.9899 16.8104 98.2494 16.7853C98.5105 16.7585 98.7658 16.7861 99.0152 16.8681C99.2647 16.9502 99.5007 17.1025 99.7233 17.3252C100.025 17.6265 100.213 17.9688 100.288 18.3522C100.362 18.7338 100.318 19.1348 100.155 19.555C99.9929 19.9718 99.7058 20.3861 99.294 20.7979C98.8939 21.198 98.4846 21.4834 98.0661 21.6542C97.6492 21.8233 97.2391 21.8718 96.8357 21.7998C96.4339 21.7262 96.0556 21.5253 95.7007 21.1972L96.6172 20.2806C96.8097 20.4464 97.0139 20.5401 97.2299 20.5619C97.4458 20.5836 97.6609 20.546 97.8752 20.4489C98.0912 20.3501 98.2962 20.2036 98.4904 20.0094C98.693 19.8069 98.8403 19.5993 98.9324 19.3867C99.0244 19.1708 99.0596 18.9649 99.0378 18.769C99.0144 18.5715 98.9299 18.3982 98.7842 18.2492C98.6486 18.117 98.4988 18.0458 98.3347 18.0358C98.169 18.0241 97.9874 18.0584 97.7898 18.1387C97.5923 18.2157 97.378 18.3229 97.147 18.4601L96.4113 18.8946C95.879 19.2093 95.3793 19.3792 94.9122 19.4043C94.4452 19.4261 94.0275 19.2528 93.6592 18.8845C93.3562 18.5815 93.1729 18.2341 93.1093 17.8424C93.0473 17.449 93.0959 17.0473 93.2549 16.6371C93.4123 16.2253 93.6709 15.8395 94.0308 15.4795C94.3958 15.1146 94.7791 14.8585 95.1809 14.7112C95.5826 14.5605 95.9744 14.5187 96.356 14.5856C96.736 14.6509 97.0734 14.8258 97.368 15.1104L96.4716 16.0069ZM101.998 17.9385L96.8551 12.7959L100.2 9.45119L100.981 10.2321L98.5676 12.6452L99.9638 14.0414L102.204 11.8015L102.985 12.5824L100.745 14.8223L102.148 16.226L104.582 13.7928L105.362 14.5737L101.998 17.9385ZM105.359 7.11969C105.116 6.92383 104.846 6.85185 104.55 6.90374C104.256 6.95396 103.97 7.11718 103.694 7.39339C103.5 7.58758 103.362 7.78344 103.282 7.98098C103.202 8.17851 103.175 8.36433 103.202 8.53842C103.229 8.71252 103.306 8.86486 103.433 8.99543C103.54 9.10257 103.657 9.17121 103.784 9.20134C103.913 9.2298 104.048 9.22896 104.189 9.19883C104.328 9.16702 104.467 9.11764 104.608 9.05068C104.749 8.98371 104.884 8.91006 105.015 8.8297L105.617 8.46812C105.857 8.31913 106.105 8.19358 106.361 8.09146C106.618 7.98767 106.877 7.92322 107.137 7.89811C107.398 7.87133 107.653 7.89895 107.902 7.98098C108.152 8.063 108.388 8.21534 108.611 8.43798C108.912 8.73931 109.1 9.08165 109.175 9.465C109.249 9.84667 109.205 10.2476 109.042 10.6678C108.88 11.0846 108.593 11.4989 108.181 11.9107C107.781 12.3108 107.372 12.5963 106.953 12.767C106.536 12.9361 106.126 12.9846 105.723 12.9126C105.321 12.839 104.943 12.6381 104.588 12.31L105.504 11.3935C105.697 11.5592 105.901 11.6529 106.117 11.6747C106.333 11.6965 106.548 11.6588 106.762 11.5617C106.978 11.4629 107.183 11.3165 107.378 11.1223C107.58 10.9197 107.727 10.7121 107.82 10.4995C107.912 10.2836 107.947 10.0777 107.925 9.88183C107.902 9.68429 107.817 9.51103 107.671 9.36204C107.536 9.2298 107.386 9.15865 107.222 9.14861C107.056 9.13689 106.875 9.17121 106.677 9.25156C106.479 9.32856 106.265 9.4357 106.034 9.57297L105.298 10.0074C104.766 10.3221 104.266 10.492 103.799 10.5171C103.332 10.5389 102.915 10.3656 102.546 9.99733C102.243 9.69434 102.06 9.34698 101.996 8.95526C101.935 8.56186 101.983 8.1601 102.142 7.74996C102.299 7.33815 102.558 6.95229 102.918 6.59237C103.283 6.22744 103.666 5.97131 104.068 5.824C104.47 5.67334 104.862 5.63149 105.243 5.69845C105.623 5.76373 105.961 5.93867 106.255 6.22325L105.359 7.11969Z" fill="white"/>
</svg>
