<svg width="50" height="65" viewBox="0 0 50 65" fill="none" xmlns="http://www.w3.org/2000/svg">
<path d="M22.0075 63.6886C3.44546 36.9473 0 34.2028 0 24.375C0 10.913 10.9817 0 24.5283 0C38.0749 0 49.0566 10.913 49.0566 24.375C49.0566 34.2028 45.6111 36.9473 27.0491 63.6886C25.831 65.4372 23.2255 65.4371 22.0075 63.6886ZM24.5283 34.5312C30.1727 34.5312 34.7484 29.9842 34.7484 24.375C34.7484 18.7658 30.1727 14.2187 24.5283 14.2187C18.8839 14.2187 14.3082 18.7658 14.3082 24.375C14.3082 29.9842 18.8839 34.5312 24.5283 34.5312Z" fill="black"/>
</svg>
