<svg width="27" height="27" viewBox="0 0 27 27" fill="none" xmlns="http://www.w3.org/2000/svg">
<path d="M25.9236 24.6501L19.022 17.7486C20.7606 15.6193 21.6147 12.9034 21.4078 10.1623C21.2009 7.42118 19.9488 4.86431 17.9103 3.02012C15.8718 1.17594 13.2026 0.185421 10.4545 0.253269C7.70646 0.321117 5.08947 1.44215 3.14443 3.38468C1.1994 5.32722 0.075001 7.94276 0.00361836 10.6908C-0.0677643 13.4388 0.919326 16.1091 2.76088 18.15C4.60244 20.1909 7.1577 21.4463 9.89856 21.6568C12.6394 21.8672 15.3564 21.0166 17.4879 19.2807L24.3894 26.1823C24.4902 26.283 24.6098 26.3629 24.7414 26.4174C24.873 26.4719 25.014 26.5 25.1565 26.5C25.299 26.5 25.44 26.4719 25.5716 26.4174C25.7032 26.3629 25.8228 26.283 25.9236 26.1823C26.0243 26.0815 26.1042 25.962 26.1587 25.8303C26.2132 25.6987 26.2413 25.5577 26.2413 25.4152C26.2413 25.2728 26.2132 25.1317 26.1587 25.0001C26.1042 24.8685 26.0243 24.7489 25.9236 24.6482V24.6501ZM2.21967 10.9949C2.22006 9.31058 2.71988 7.66419 3.65592 6.26391C4.59197 4.86364 5.9222 3.77236 7.47843 3.12807C9.03465 2.48378 10.747 2.3154 12.3989 2.64424C14.0508 2.97307 15.5681 3.78435 16.759 4.97548C17.9498 6.16662 18.7608 7.68412 19.0892 9.33611C19.4177 10.9881 19.2489 12.7004 18.6042 14.2565C17.9596 15.8125 16.868 17.1425 15.4675 18.0782C14.067 19.014 12.4205 19.5134 10.7362 19.5134C8.47777 19.5113 6.31247 18.6131 4.71571 17.016C3.11895 15.4188 2.22124 13.2533 2.21967 10.9949Z" fill="white"/>
</svg>
