<svg width="27" height="27" viewBox="0 0 27 27" fill="none" xmlns="http://www.w3.org/2000/svg">
<path d="M8.75007 9.62462C8.75007 7.20838 10.7088 5.24962 13.1251 5.24962C15.5413 5.24962 17.5001 7.20838 17.5001 9.62462C17.5001 12.0409 15.5413 13.9996 13.1251 13.9996C10.7088 13.9996 8.75007 12.0409 8.75007 9.62462Z" fill="white"/>
<path fill-rule="evenodd" clip-rule="evenodd" d="M13.125 0C5.87626 0 0 5.87626 0 13.125C0 20.3737 5.87626 26.25 13.125 26.25C20.3737 26.25 26.25 20.3737 26.25 13.125C26.25 5.87626 20.3737 0 13.125 0ZM1.75 13.125C1.75 6.84276 6.84276 1.75 13.125 1.75C19.4073 1.75 24.5 6.84276 24.5 13.125C24.5 16.3617 23.1481 19.2827 20.9781 21.3542C20.7139 18.2151 18.0824 15.75 14.875 15.75H11.375C8.16767 15.75 5.53604 18.2151 5.27182 21.3542C3.10189 19.2827 1.75 16.3617 1.75 13.125Z" fill="white"/>
</svg>
