<?xml version="1.0" standalone="no"?>
<!DOCTYPE svg PUBLIC "-//W3C//DTD SVG 20010904//EN"
 "http://www.w3.org/TR/2001/REC-SVG-20010904/DTD/svg10.dtd">
<svg version="1.0" xmlns="http://www.w3.org/2000/svg"
 width="400.000000pt" height="300.000000pt" viewBox="0 0 400.000000 300.000000"
 preserveAspectRatio="xMidYMid meet">

<g transform="translate(0.000000,300.000000) scale(0.100000,-0.100000)"
fill="rgba(0, 0, 0, 0.8)" stroke="none">
<path d="M2321 2746 c-9 -11 -8 -18 5 -31 15 -15 19 -15 32 -1 17 17 10 46
-11 46 -8 0 -20 -6 -26 -14z"/>
<path d="M2029 2564 c-54 -37 -79 -47 -135 -55 -38 -5 -112 -21 -164 -36 l-95
-26 -220 -218 c-121 -121 -225 -219 -230 -219 -5 0 85 95 200 210 115 116 207
210 204 210 -40 0 -92 -40 -244 -189 l-170 -166 155 158 c85 86 152 157 149
157 -36 0 -90 -38 -189 -134 l-115 -111 101 105 c60 62 106 119 113 139 6 19
10 36 8 37 -2 2 -48 -42 -102 -96 -55 -55 -104 -100 -110 -100 -5 0 45 55 113
123 67 67 122 126 122 130 0 4 -26 -6 -57 -22 -44 -22 -103 -74 -240 -213
-100 -101 -185 -184 -190 -186 -13 -5 -33 -71 -54 -181 -12 -58 -31 -139 -45
-181 -21 -68 -28 -79 -69 -108 l-45 -32 49 -62 c26 -35 63 -87 81 -115 22 -37
46 -61 81 -80 27 -16 49 -31 49 -34 0 -3 -11 -12 -25 -19 l-25 -13 51 -29 c69
-40 127 -101 166 -173 30 -58 65 -97 127 -144 16 -12 48 -39 72 -61 l43 -40
15 -215 c13 -200 18 -236 31 -224 2 3 -2 102 -10 221 l-15 216 -60 58 c-52 52
-63 71 -94 156 -35 95 -35 98 -20 147 15 52 52 91 85 91 16 0 19 -8 19 -52 1
-98 61 -178 160 -213 50 -18 60 -18 60 -5 0 5 -15 13 -34 19 -19 5 -56 23 -81
41 -90 62 -109 170 -48 281 35 66 72 89 141 89 120 0 174 -69 197 -258 4 -31
11 -50 17 -46 23 14 -17 205 -54 256 -22 32 -24 32 72 47 57 9 304 31 353 31
9 0 17 5 17 11 0 8 -27 9 -95 4 -66 -5 -95 -4 -95 4 0 6 5 11 10 11 6 0 10 7
10 15 0 17 45 49 57 42 16 -10 164 14 241 38 42 14 94 36 114 50 23 15 51 25
73 25 48 0 60 -27 50 -114 -6 -64 -7 -66 -35 -66 -24 0 -29 5 -32 28 -2 19 -9
27 -23 27 -16 0 -19 -6 -17 -27 l3 -28 -90 0 c-54 0 -91 -4 -91 -10 0 -6 37
-10 90 -10 l90 0 0 -69 c0 -72 6 -86 35 -75 15 6 16 16 11 76 l-7 68 29 0 29
0 5 -104 c7 -124 27 -179 69 -184 33 -4 65 33 74 86 l6 38 55 -10 c62 -12 61
-6 39 -132 -22 -122 -61 -257 -99 -334 -48 -100 -175 -223 -293 -283 -80 -41
-99 -47 -155 -47 -35 0 -78 4 -96 9 -17 5 -32 7 -32 3 -1 -32 36 -202 43 -202
6 0 7 18 3 45 -21 152 -22 138 5 130 13 -5 50 -8 82 -8 142 0 379 176 460 343
55 113 92 254 121 462 l5 38 -59 0 c-36 0 -62 5 -67 13 -4 6 -9 64 -10 127 -1
64 -9 136 -17 163 -14 46 -13 47 7 47 20 0 20 0 1 14 -18 14 -16 15 24 22 l43
7 -27 28 c-24 25 -26 32 -16 53 6 13 30 39 53 57 133 104 198 209 223 359 16
94 32 330 23 330 -4 0 -48 -27 -98 -60 -50 -33 -95 -60 -100 -60 -13 0 -11 51
5 103 8 26 13 47 12 47 -1 0 -54 -7 -117 -17 -118 -17 -566 -25 -575 -11 -3 4
2 20 10 36 14 27 12 73 -3 71 -3 0 -36 -20 -72 -45z m581 -969 c12 -23 15 -69
15 -205 0 -152 -2 -180 -18 -203 -44 -67 -77 -4 -85 159 -5 109 8 227 29 266
14 26 41 18 59 -17z"/>
<path d="M1183 2352 c-43 -33 -101 -83 -128 -113 -53 -57 -120 -148 -113 -154
2 -3 78 70 168 160 91 91 162 165 158 165 -3 0 -42 -26 -85 -58z"/>
<path d="M1501 1303 c-12 -10 -28 -39 -36 -65 -12 -42 -12 -48 0 -48 8 0 15 9
15 20 0 55 47 99 89 85 28 -8 81 -72 81 -95 0 -24 -13 -26 -30 -5 -17 20 -43
19 -71 -4 -20 -16 -22 -21 -9 -36 7 -9 26 -23 42 -31 31 -16 37 -48 12 -58
-31 -12 -53 5 -72 56 -22 60 -37 50 -19 -13 16 -54 51 -78 94 -63 22 7 29 17
31 42 3 28 -2 35 -32 53 -20 12 -36 25 -36 29 0 18 34 19 57 1 49 -39 73 3 40
70 -34 70 -110 100 -156 62z"/>
<path d="M2300 1025 c0 -15 82 -166 104 -192 24 -28 80 -61 134 -77 41 -13 24
20 -18 34 -64 21 -111 69 -155 159 -21 44 -45 81 -52 81 -7 0 -13 -2 -13 -5z"/>
<path d="M2406 214 c-24 -23 -17 -66 13 -81 45 -22 90 23 68 68 -15 30 -58 37
-81 13z"/>
</g>
</svg>
