<svg width="51" height="30" viewBox="0 0 51 30" fill="none" xmlns="http://www.w3.org/2000/svg">
<path d="M30.0002 15.0004C30.0002 23.2852 23.2841 30.0001 14.9997 30.0001C6.71526 30.0001 0 23.2848 0 15.0004C0 6.71649 6.71534 0.000732422 14.9997 0.000732422C23.2839 0.000732422 30.0002 6.71683 30.0002 15.0004Z" fill="#D9222A"/>
<path d="M35.1378 0C31.2622 0 27.7305 1.47038 25.0684 3.88295C24.526 4.37506 24.0198 4.90552 23.5538 5.47032H26.5844C26.9993 5.9748 27.3813 6.50543 27.728 7.05903H22.4104C22.0906 7.57061 21.802 8.10099 21.5462 8.64741H28.5917C28.8335 9.16425 29.0455 9.69446 29.2268 10.2355H20.9112C20.7365 10.7564 20.591 11.2867 20.4752 11.8238H29.6622C29.8869 12.8675 30.0002 13.9322 30 14.9999C30 16.6658 29.7281 18.2683 29.2267 19.7648H20.911C21.0918 20.306 21.3038 20.8364 21.5458 21.3532H28.5915C28.3355 21.8998 28.0468 22.4302 27.7269 22.942H22.4101C22.7567 23.4952 23.1387 24.0255 23.5537 24.5293H26.5836C26.1182 25.0952 25.6118 25.6263 25.0686 26.1181C27.7307 28.5303 31.2621 30 35.138 30C43.4225 30 50.1385 23.2847 50.1385 15.0003C50.1385 6.71676 43.4225 0.000668142 35.138 0.000668142" fill="#EE9F2D"/>
<path d="M48.1388 23.3614C48.1388 23.0941 48.3554 22.8766 48.6231 22.8766C48.8908 22.8766 49.1074 23.0941 49.1074 23.3614C49.1074 23.6287 48.8908 23.8461 48.6231 23.8461C48.3554 23.8461 48.1388 23.6287 48.1388 23.3614ZM48.6231 23.7297C48.8265 23.7297 48.9914 23.5648 48.9914 23.3614C48.9914 23.1582 48.8267 22.9935 48.6236 22.9934H48.6231C48.4201 22.9931 48.2554 23.1574 48.2551 23.3603V23.3615C48.2549 23.5648 48.4195 23.7297 48.6228 23.7298C48.6228 23.7297 48.623 23.7297 48.6231 23.7297V23.7297ZM48.5577 23.5743H48.4585V23.1485H48.638C48.6757 23.1485 48.7139 23.1485 48.7471 23.1697C48.7816 23.193 48.8011 23.2341 48.8011 23.2766C48.8011 23.3243 48.7728 23.3688 48.7272 23.3862L48.8056 23.5742H48.6957L48.6306 23.4057H48.5578L48.5577 23.5743ZM48.5577 23.3328H48.6126C48.6332 23.3328 48.6548 23.3346 48.6733 23.3245C48.6896 23.314 48.698 23.2945 48.698 23.2756C48.6976 23.2582 48.6887 23.2421 48.674 23.2324C48.6567 23.2216 48.6292 23.2239 48.6106 23.2239H48.5577V23.3328ZM11.4972 16.6425C11.3262 16.6226 11.2511 16.6173 11.1337 16.6173C10.2106 16.6173 9.74336 16.9338 9.74336 17.5589C9.74336 17.9442 9.9714 18.1894 10.3272 18.1894C10.9906 18.1894 11.4686 17.5577 11.4972 16.6425V16.6425ZM12.6814 19.3997H11.3322L11.3632 18.7583C10.9515 19.2651 10.4025 19.5061 9.65629 19.5061C8.7736 19.5061 8.16852 18.8167 8.16852 17.8157C8.16852 16.3095 9.22109 15.4307 11.0278 15.4307C11.2123 15.4307 11.4491 15.4473 11.6914 15.4783C11.7419 15.2743 11.7552 15.1869 11.7552 15.0771C11.7552 14.667 11.4714 14.5142 10.7106 14.5142C9.914 14.5051 9.25694 14.7039 8.98711 14.7927C9.00416 14.69 9.21273 13.4006 9.21273 13.4006C10.0243 13.1628 10.5594 13.0733 11.1619 13.0733C12.56 13.0733 13.3007 13.7011 13.2993 14.8876C13.3021 15.2056 13.2494 15.5979 13.1674 16.1136C13.0261 17.0105 12.7228 18.9314 12.6814 19.3997V19.3997ZM7.48722 19.3997H5.85882L6.79156 13.5505L4.70873 19.3997H3.59909L3.46188 13.5839L2.48143 19.3997H0.957062L2.23032 11.7907H4.57186L4.71392 16.0498L6.14219 11.7907H8.74661L7.48722 19.3997ZM37.1498 16.6425C36.9796 16.6226 36.904 16.6173 36.787 16.6173C35.8643 16.6173 35.397 16.9338 35.397 17.5589C35.397 17.9442 35.6248 18.1894 35.9805 18.1894C36.644 18.1894 37.1223 17.5577 37.1498 16.6425V16.6425ZM38.3351 19.3997H36.9859L37.0164 18.7583C36.6048 19.2651 36.0555 19.5061 35.3099 19.5061C34.427 19.5061 33.8225 18.8167 33.8225 17.8157C33.8225 16.3095 34.8744 15.4307 36.6814 15.4307C36.8659 15.4307 37.1023 15.4473 37.3444 15.4783C37.3949 15.2743 37.4082 15.1869 37.4082 15.0771C37.4082 14.667 37.1247 14.5142 36.364 14.5142C35.5674 14.5051 34.9111 14.7039 34.6401 14.7927C34.6572 14.69 34.8665 13.4006 34.8665 13.4006C35.6781 13.1628 36.2129 13.0733 36.8146 13.0733C38.2135 13.0733 38.9542 13.7011 38.9528 14.8876C38.9554 15.2056 38.9029 15.5979 38.8208 16.1136C38.6801 17.0105 38.3762 18.9314 38.3351 19.3997V19.3997ZM19.9185 19.3057C19.4728 19.446 19.1254 19.5061 18.7486 19.5061C17.9161 19.5061 17.4618 19.0277 17.4618 18.1468C17.4499 17.8734 17.5815 17.154 17.685 16.4975C17.779 15.9195 18.391 12.2751 18.391 12.2751H20.0097L19.8206 13.2117H20.7982L20.5775 14.6988H19.5963C19.4082 15.8756 19.1405 17.3415 19.1374 17.5357C19.1374 17.8546 19.3076 17.9939 19.6949 17.9939C19.8805 17.9939 20.0241 17.975 20.1339 17.9354L19.9185 19.3057ZM24.8815 19.2556C24.3255 19.4255 23.7889 19.5077 23.2203 19.5063C21.4083 19.5045 20.4638 18.5581 20.4638 16.746C20.4638 14.6307 21.6655 13.0736 23.2965 13.0736C24.6311 13.0736 25.4835 13.9454 25.4835 15.3128C25.4835 15.7665 25.425 16.2093 25.2839 16.8346H22.0606C21.9515 17.7322 22.526 18.1062 23.4675 18.1062C24.047 18.1062 24.5696 17.9868 25.1507 17.7166L24.8815 19.2556ZM23.9717 15.5871C23.9806 15.4582 24.1434 14.4827 23.2185 14.4827C22.7028 14.4827 22.3341 14.8757 22.184 15.5871H23.9717ZM13.6582 15.1679C13.6582 15.9506 14.0378 16.4904 14.8985 16.8956C15.558 17.2056 15.6599 17.2976 15.6599 17.5784C15.6599 17.9642 15.3692 18.1383 14.7248 18.1383C14.239 18.1383 13.7871 18.0624 13.2659 17.8942C13.2659 17.8942 13.0517 19.258 13.042 19.3233C13.4121 19.4041 13.7422 19.4788 14.7365 19.5063C16.4549 19.5063 17.2484 18.852 17.2484 17.4381C17.2484 16.5878 16.9161 16.0888 16.1005 15.7138C15.4177 15.4004 15.3394 15.3305 15.3394 15.0415C15.3394 14.707 15.6099 14.5363 16.1363 14.5363C16.4559 14.5363 16.8926 14.5704 17.3062 14.6292L17.5381 13.194C17.1164 13.1272 16.4772 13.0735 16.105 13.0735C14.2832 13.0736 13.6526 14.0252 13.6582 15.1679M32.8018 13.2362C33.2541 13.2362 33.6757 13.355 34.2568 13.6474L34.5232 11.996C34.2847 11.9023 33.4449 11.3525 32.7336 11.3525C31.6438 11.3525 30.7226 11.8933 30.0746 12.7857C29.1295 12.4726 28.741 13.1053 28.2648 13.7355L27.8417 13.834C27.8737 13.6266 27.9027 13.4204 27.8929 13.2118H26.3974C26.1931 15.1269 25.831 17.0665 25.5475 18.984L25.4736 19.3998H27.1028C27.3747 17.633 27.5237 16.5018 27.6143 15.7362L28.2277 15.3949C28.3194 15.0542 28.6062 14.9388 29.1818 14.9528C29.1044 15.3713 29.0657 15.796 29.0662 16.2216C29.0662 18.246 30.1584 19.5063 31.9115 19.5063C32.3631 19.5063 32.7506 19.4468 33.3506 19.2842L33.6372 17.5495C33.0976 17.8154 32.6546 17.9404 32.2535 17.9404C31.3068 17.9404 30.734 17.2415 30.734 16.0865C30.734 14.411 31.586 13.2362 32.8018 13.2362" fill="black"/>
<path d="M7.95589 18.9508H6.32715L7.26064 13.1024L5.17773 18.9508H4.06776L3.93055 13.1358L2.9501 18.9508H1.42581L2.69907 11.343H5.04061L5.10645 16.0528L6.68614 11.343H9.21536L7.95589 18.9508Z" fill="white"/>
<path d="M46.5884 11.7905L46.2273 13.989C45.782 13.403 45.3036 12.9789 44.672 12.9789C43.8503 12.9789 43.1025 13.6019 42.6129 14.5185C41.9311 14.3772 41.226 14.1372 41.226 14.1372L41.2256 14.1428C41.2806 13.6303 41.3026 13.3177 41.2976 13.2114H39.8019C39.5981 15.1265 39.236 17.0661 38.9531 18.9836L38.8785 19.3994H40.5073C40.7273 17.9708 40.8957 16.7846 41.0198 15.8437C41.5762 15.341 41.8548 14.9023 42.4171 14.9315C42.1681 15.5336 42.0222 16.227 42.0222 16.9385C42.0222 18.4855 42.8049 19.5059 43.9887 19.5059C44.5855 19.5059 45.0434 19.3002 45.4901 18.8232L45.4138 19.3984H46.9543L48.1946 11.7906L46.5884 11.7905ZM44.5519 17.9693C43.9975 17.9693 43.7177 17.5592 43.7177 16.7496C43.7177 15.5333 44.2417 14.671 44.9805 14.671C45.5399 14.671 45.8428 15.0975 45.8428 15.8834C45.8429 17.11 45.3105 17.9693 44.5519 17.9693V17.9693Z" fill="black"/>
<path d="M11.9657 16.1946C11.7951 16.1749 11.7195 16.1697 11.6025 16.1697C10.6795 16.1697 10.2125 16.4861 10.2125 17.1111C10.2125 17.4958 10.4406 17.7417 10.7957 17.7417C11.4598 17.7417 11.9379 17.1101 11.9657 16.1946V16.1946ZM13.1505 18.9509H11.8012L11.8319 18.3106C11.4207 18.8165 10.8709 19.0585 10.1255 19.0585C9.24244 19.0585 8.6376 18.3691 8.6376 17.368C8.6376 15.8612 9.68984 14.983 11.4969 14.983C11.6814 14.983 11.9182 14.9997 12.1602 15.0307C12.2107 14.8267 12.224 14.7393 12.224 14.6289C12.224 14.2187 11.9405 14.0666 11.1798 14.0666C10.3828 14.0576 9.7261 14.2564 9.45594 14.3441C9.47299 14.2418 9.68156 12.9539 9.68156 12.9539C10.4928 12.7151 11.0286 12.6256 11.6303 12.6256C13.0289 12.6256 13.7698 13.2537 13.7685 14.4392C13.7709 14.7585 13.718 15.1506 13.6361 15.6655C13.4952 16.5617 13.1917 18.4836 13.1505 18.9509V18.9509ZM34.9923 11.5478L34.7257 13.1996C34.1449 12.9075 33.7229 12.7885 33.2711 12.7885C32.0551 12.7885 31.2029 13.9633 31.2029 15.6385C31.2029 16.7935 31.7759 17.4921 32.7224 17.4921C33.1235 17.4921 33.566 17.3674 34.1057 17.1014L33.8198 18.8353C33.2195 18.9989 32.8324 19.0585 32.3804 19.0585C30.6275 19.0585 29.535 17.798 29.535 15.7737C29.535 13.0537 31.0441 11.1526 33.2025 11.1526C33.9133 11.1527 34.7535 11.4542 34.9923 11.5478M37.6198 16.1946C37.4492 16.1749 37.374 16.1697 37.2565 16.1697C36.3339 16.1697 35.8666 16.4861 35.8666 17.1111C35.8666 17.4958 36.0947 17.7417 36.4502 17.7417C37.1135 17.7417 37.5919 17.1101 37.6198 16.1946V16.1946ZM38.8046 18.9509H37.455L37.486 18.3106C37.0745 18.8165 36.525 19.0585 35.7796 19.0585C34.8969 19.0585 34.2918 18.3691 34.2918 17.368C34.2918 15.8612 35.3444 14.983 37.1507 14.983C37.3356 14.983 37.572 14.9997 37.8143 15.0307C37.8645 14.8267 37.878 14.7393 37.878 14.6289C37.878 14.2187 37.5945 14.0666 36.8339 14.0666C36.0373 14.0576 35.3802 14.2564 35.11 14.3441C35.127 14.2418 35.3359 12.9539 35.3359 12.9539C36.1472 12.7151 36.6826 12.6256 37.2843 12.6256C38.6832 12.6256 39.4239 13.2537 39.4221 14.4392C39.4249 14.7585 39.3723 15.1506 39.2902 15.6655C39.1496 16.5617 38.8453 18.4836 38.8046 18.9509ZM20.388 18.8572C19.9419 18.9975 19.5945 19.0585 19.2181 19.0585C18.3856 19.0585 17.9313 18.58 17.9313 17.699C17.9198 17.425 18.0515 16.7063 18.1548 16.0498C18.2484 15.4711 18.8605 11.827 18.8605 11.827H20.479L20.2901 12.7639H21.1208L20.8997 14.2504H20.0662C19.8782 15.428 19.6097 16.8927 19.6069 17.0874C19.6069 17.4074 19.7775 17.5455 20.1644 17.5455C20.35 17.5455 20.4934 17.5274 20.6034 17.4877L20.388 18.8572ZM25.3509 18.8078C24.7952 18.9777 24.258 19.0595 23.6897 19.0585C21.8777 19.0567 20.9332 18.1103 20.9332 16.2981C20.9332 14.1822 22.1348 12.6255 23.766 12.6255C25.1006 12.6255 25.9529 13.497 25.9529 14.865C25.9529 15.3191 25.8944 15.7619 25.7537 16.3868H22.5303C22.4212 17.2844 22.9957 17.6589 23.9373 17.6589C24.5164 17.6589 25.0393 17.5389 25.6201 17.268L25.3509 18.8078ZM24.4408 15.1383C24.4505 15.0098 24.613 14.0339 23.6877 14.0339C23.1723 14.0339 22.8036 14.428 22.6536 15.1383H24.4408ZM14.1274 14.7201C14.1274 15.5028 14.5069 16.0419 15.3676 16.4478C16.0271 16.7577 16.1291 16.8499 16.1291 17.1306C16.1291 17.5164 15.838 17.6904 15.1942 17.6904C14.7082 17.6904 14.2562 17.6146 13.7346 17.4463C13.7346 17.4463 13.5211 18.8102 13.5114 18.8754C13.8808 18.9562 14.2112 19.03 15.2056 19.0585C16.9242 19.0585 17.7175 18.4042 17.7175 16.9906C17.7175 16.1399 17.3856 15.641 16.5695 15.2661C15.8871 14.952 15.808 14.883 15.808 14.5937C15.808 14.2595 16.0793 14.0874 16.6054 14.0874C16.9247 14.0874 17.3613 14.1226 17.7756 14.1814L18.0072 12.7459C17.5858 12.679 16.9466 12.6255 16.5744 12.6255C14.7524 12.6255 14.1221 13.5764 14.1274 14.7201M47.4233 18.9509H45.8826L45.9592 18.3749C45.5124 18.8526 45.0546 19.0585 44.4577 19.0585C43.274 19.0585 42.4916 18.0379 42.4916 16.4909C42.4916 14.4327 43.7051 12.6978 45.1413 12.6978C45.7729 12.6978 46.2509 12.9557 46.6959 13.5414L47.0573 11.343H48.6635L47.4233 18.9509ZM45.0212 17.5212C45.7795 17.5212 46.3123 16.6619 46.3123 15.4361C46.3123 14.6501 46.009 14.2236 45.4495 14.2236C44.711 14.2236 44.1864 15.0856 44.1864 16.3023C44.1863 17.1117 44.4669 17.5212 45.0212 17.5212ZM40.2713 12.764C40.0673 14.6791 39.7053 16.6188 39.4221 18.5352L39.3476 18.951H40.9763C41.5589 15.1677 41.6998 14.4288 42.6131 14.5214C42.7587 13.747 43.0295 13.0688 43.2314 12.7265C42.5493 12.5845 42.1684 12.9699 41.6698 13.7021C41.7092 13.3856 41.7812 13.0781 41.7669 12.7641L40.2713 12.764ZM26.866 12.764C26.6616 14.6791 26.2995 16.6188 26.0164 18.5352L25.9422 18.951H27.5717C28.1535 15.1677 28.2942 14.4288 29.207 14.5214C29.3533 13.747 29.6241 13.0688 29.8253 12.7265C29.1439 12.5845 28.7626 12.9699 28.2644 13.7021C28.3038 13.3856 28.3751 13.0781 28.3615 12.7641L26.866 12.764ZM48.1388 18.4665C48.1385 18.1992 48.3549 17.9822 48.6221 17.9819H48.6231C48.8903 17.9816 49.1072 18.198 49.1075 18.4652V18.4665C49.1074 18.734 48.8906 18.9507 48.6231 18.9509C48.3556 18.9507 48.1389 18.734 48.1388 18.4665V18.4665ZM48.6231 18.8346C48.8263 18.8348 48.991 18.6701 48.9911 18.467V18.4667C48.9913 18.2633 48.8266 18.0985 48.6235 18.0983H48.6231C48.4196 18.0984 48.2549 18.2633 48.2548 18.4667C48.2549 18.6699 48.4198 18.8346 48.6231 18.8346ZM48.5576 18.6782H48.4583V18.2536H48.6382C48.6755 18.2536 48.7142 18.2543 48.7465 18.2748C48.7814 18.2984 48.8012 18.3389 48.8012 18.3813C48.8012 18.4293 48.773 18.4742 48.727 18.4913L48.8056 18.6782H48.6953L48.6302 18.5103H48.5575L48.5576 18.6782ZM48.5576 18.4377H48.6122C48.6327 18.4377 48.655 18.4393 48.6731 18.4293C48.6895 18.4189 48.6978 18.3991 48.6978 18.3802C48.6971 18.3626 48.6883 18.3464 48.6738 18.3365C48.6568 18.3267 48.6286 18.3294 48.6101 18.3294H48.5575L48.5576 18.4377Z" fill="white"/>
</svg>
