<svg width="112" height="30" viewBox="0 0 112 30" fill="none" xmlns="http://www.w3.org/2000/svg">
<path d="M53.5202 9.99381C52.7001 12.2835 50.4383 12.0135 50.4383 12.0135L47.351 12.0153L48.5704 7.47917C48.5704 7.47917 50.5241 7.48911 51.8149 7.48911C53.3947 7.48911 53.9682 8.74372 53.5202 9.99381ZM60.0046 7.87479C60.5059 3.90502 57.481 2.24756 53.7036 2.24756C51.9305 2.24756 43.7796 2.24756 43.7796 2.24756L37.922 23.5985H44.2276L46.0007 17.0157L51.0254 17.0464C51.0254 17.0464 58.806 17.3761 60.0046 7.87479Z" fill="#2F3086"/>
<path d="M23.9804 8.08618H29.7322L27.3639 17.2C27.3639 17.2 26.7732 19.2323 28.6745 19.3894C30.1757 19.5132 31.2931 17.7211 31.6598 16.5072C32.1403 14.9129 34.01 8.08618 34.01 8.08618H39.9354L35.4263 23.5986H30.2525L30.8884 21.382C30.8884 21.382 28.2491 24.6003 24.3272 24.2146C20.8416 23.8723 20.5408 21.3441 21.1451 18.1899C21.4413 16.6409 23.9804 8.08618 23.9804 8.08618Z" fill="#2F3086"/>
<path d="M65.3067 20.4381C64.3213 20.6883 63.1263 20.8238 62.8896 19.9286C62.2384 17.4754 67.9821 16.7573 67.9821 16.7573C68.021 18.9929 66.0627 20.2457 65.3067 20.4381ZM73.9942 15.948C74.752 13.3683 75.7103 10.9242 74.939 9.57018C73.7584 7.49723 71.624 7.31567 68.5024 7.31567C65.0538 7.31567 60.795 7.97053 59.4076 12.5572C61.5655 12.5572 65.1495 12.5572 65.1495 12.5572C65.1495 12.5572 65.6725 10.8293 67.8286 10.9386C69.7362 11.0343 69.6315 12.3477 68.9287 13.073C67.6958 14.3448 64.2906 13.6393 60.5195 14.9481C57.2244 16.0907 56.071 20.4236 56.7873 22.1533C57.481 23.8298 58.7726 24.0429 60.5159 24.2145C63.3151 24.4891 65.4612 22.9292 66.4602 22.0133C66.4602 23.0304 66.4864 23.5985 66.4864 23.5985H72.5291L72.5146 23.0295C72.5146 23.0295 71.9763 22.8868 72.0359 22.1308C72.0802 21.5762 73.1234 18.9116 73.9942 15.948Z" fill="#2F3086"/>
<path d="M15.8601 9.94504C15.0445 11.8346 12.5163 11.6197 12.5163 11.6197L9.57353 11.6061L10.6484 7.60563C10.6484 7.60563 13.2814 7.61556 14.5721 7.61556C15.955 7.61556 16.3867 8.72565 15.8601 9.94504ZM22.5496 7.21904C23.0509 3.25016 19.558 2.24756 15.7816 2.24756C14.0085 2.24756 5.85757 2.24756 5.85757 2.24756L0 23.5985H6.30558L8.27466 16.3491L11.8118 16.378C11.8118 16.378 13.2714 16.2931 13.3003 17.6642C13.332 19.1266 12.2164 21.8119 12.2887 23.5985C13.1269 23.5985 18.7668 23.5985 18.7668 23.5985L18.7523 23.0295C18.7523 23.0295 18.214 22.8868 18.2745 22.1308C18.2998 21.8155 18.6467 20.8201 19.1019 19.477C19.3756 18.8845 19.7893 17.4799 19.7513 16.3364C19.7035 14.9084 18.8074 14.2454 17.5158 13.782C21.5434 12.8372 22.5496 7.21904 22.5496 7.21904Z" fill="#2F3086"/>
<path d="M76.731 8.08618H82.5886V17.3933L87.6567 8.08618H93.0328L82.1938 26.9027C82.1938 26.9027 81.1876 28.4816 79.9393 29.3162C78.9132 30.0026 77.6532 29.9719 77.2675 29.999C75.1268 29.981 72.5444 29.9755 72.5444 29.9755L73.79 25.49L75.8061 25.4864C75.8061 25.4864 76.7283 25.3924 77.0851 24.9372C77.4247 24.5036 77.5981 24.0701 77.5981 23.4342C77.5981 22.4813 76.731 8.08618 76.731 8.08618Z" fill="#2F3086"/>
<path d="M100.548 4.50195L93.7843 28.0298L106.444 16.2659L100.548 4.50195Z" fill="#108147"/>
<path d="M96.2123 4.50195L89.4488 28.0298L102.109 16.2659L96.2123 4.50195Z" fill="#F07322"/>
<path d="M108.804 0.231476C107.519 0.231476 106.473 1.27744 106.473 2.56276C106.473 3.84808 107.519 4.89404 108.804 4.89404C110.09 4.89404 111.136 3.84808 111.136 2.56276C111.136 1.27744 110.09 0.231476 108.804 0.231476ZM108.804 5.12528C107.391 5.12528 106.242 3.97544 106.242 2.56276C106.242 1.15008 107.391 0.000244141 108.804 0.000244141C110.217 0.000244141 111.367 1.15008 111.367 2.56276C111.367 3.97544 110.217 5.12528 108.804 5.12528Z" fill="#020202"/>
<path d="M107.561 3.51924V1.91688H106.963V1.7019H108.403V1.91688H107.802V3.51924H107.561Z" fill="#020202"/>
<path d="M108.768 3.51924V1.7019H109.131L109.56 2.98904C109.6 3.10826 109.629 3.19859 109.648 3.2582C109.668 3.19136 109.7 3.09472 109.745 2.96645L110.179 1.7019H110.503V3.51924H110.271V1.99817L109.743 3.51924H109.526L109 1.97198V3.51924H108.768Z" fill="#020202"/>
</svg>
