<svg width="98" height="30" viewBox="0 0 98 30" fill="none" xmlns="http://www.w3.org/2000/svg">
<path d="M34.5924 29.6573L39.545 0.59415H47.4667L42.5104 29.6573H34.5924ZM71.1307 1.22067C69.5616 0.63186 67.1022 0 64.0311 0C56.2032 0 50.6897 3.94185 50.6425 9.59133C50.5984 13.7675 54.579 16.0973 57.5837 17.4874C60.6675 18.9123 61.7039 19.8206 61.689 21.0925C61.6693 23.0408 59.2266 23.9304 56.9495 23.9304C53.7791 23.9304 52.0946 23.4899 49.4929 22.4052L48.4718 21.9433L47.3602 28.4493C49.2105 29.2609 52.6319 29.9635 56.1846 30C64.5119 30 69.9178 26.1031 69.9792 20.07C70.0088 16.7637 67.8984 14.248 63.3279 12.1736C60.5591 10.8291 58.8633 9.9319 58.8813 8.5705C58.8813 7.36245 60.3166 6.07067 63.4183 6.07067C66.0084 6.03044 67.8853 6.59534 69.3474 7.18414L70.0572 7.51952L71.1307 1.22067ZM91.5162 0.593704H85.3951C83.4989 0.593704 82.0796 1.11125 81.247 3.00386L69.482 29.6382H77.8006C77.8006 29.6382 79.1604 26.0571 79.468 25.2707C80.377 25.2707 88.4582 25.2832 89.6134 25.2832C89.8503 26.3007 90.5772 29.6382 90.5772 29.6382H97.9279L91.5162 0.592814V0.593704ZM81.8042 19.361C82.4595 17.6864 84.9605 11.2365 84.9605 11.2365C84.9139 11.3138 85.611 9.55377 86.0108 8.46256L86.5461 10.9683C86.5461 10.9683 88.063 17.9059 88.3801 19.3605H81.8042V19.361ZM27.8674 0.593704L20.1119 20.4136L19.2857 16.3859C17.8417 11.7429 13.3434 6.71248 8.31451 4.19409L15.4062 29.611L23.7877 29.6017L36.2592 0.593407L27.8674 0.59326" fill="#0E4595"/>
<path d="M12.8752 0.592285H0.101253L0 1.19698C9.938 3.60268 16.5136 9.41636 19.2438 16.4026L16.4662 3.04683C15.9868 1.20648 14.596 0.657162 12.8755 0.593026" fill="#F2AE14"/>
</svg>
