<svg width="50" height="50" viewBox="0 0 50 50" fill="none" xmlns="http://www.w3.org/2000/svg">
<path d="M24.9091 50C16.069 48.0357 9 39.6949 9 30.9091V21.3636L24.9091 15L40.8182 21.3636V30.9091C40.8182 39.698 33.75 48.0357 24.9091 50ZM12.1818 22.9545V30.9091C12.2728 34.5875 13.5665 38.1347 15.8651 41.0079C18.1636 43.8811 21.3404 45.922 24.9091 46.8182C28.4777 45.9219 31.6544 43.881 33.9529 41.0078C36.2514 38.1346 37.5452 34.5874 37.6363 30.9091V22.9545L24.9091 18.1818L12.1818 22.9545Z" fill="white"/>
<path d="M24.9104 30.9096C27.107 30.9096 28.8876 29.1289 28.8876 26.9323C28.8876 24.7358 27.107 22.9551 24.9104 22.9551C22.7138 22.9551 20.9331 24.7358 20.9331 26.9323C20.9331 29.1289 22.7138 30.9096 24.9104 30.9096Z" fill="white"/>
<path d="M16.9536 37.2727C17.7377 38.7017 18.8875 39.8966 20.2852 40.7353C21.6829 41.5739 23.2783 42.026 24.9082 42.0455C26.538 42.026 28.1334 41.5738 29.5311 40.7352C30.9288 39.8966 32.0786 38.7017 32.8627 37.2727C32.8229 34.257 27.5464 32.5 24.9082 32.5C22.2566 32.5 16.9934 34.257 16.9536 37.2727Z" fill="white"/>
</svg>
