<svg width="53" height="75" viewBox="0 0 53 75" fill="none" xmlns="http://www.w3.org/2000/svg">
<g clip-path="url(#clip0_70_293)">
<path d="M12.4999 67.4818C12.5324 67.9719 12.7341 68.4356 13.0706 68.7936C13.407 69.1515 13.8573 69.3816 14.3445 69.4444H16.4546C17.0022 69.3785 17.5055 69.1105 17.8659 68.6929C18.2262 68.2753 18.4177 67.7382 18.4027 67.1868V54.6882C16.5274 55.4462 14.5226 55.8321 12.4999 55.8244V67.4818ZM18.0025 35.5051C15.6521 35.4727 13.3437 36.1293 11.3622 37.394C9.44807 38.4549 7.76693 39.8902 6.41891 41.6143C7.54755 41.8985 8.61008 42.3997 9.54725 43.0898C10.563 43.779 11.4227 44.6739 12.0706 45.7165C13.0295 47.0209 13.6528 48.5412 13.8856 50.1433C14.0538 51.0207 14.0538 51.922 13.8856 52.7994C13.8287 53.1574 13.7347 53.5085 13.6052 53.8471C15.3112 53.707 16.9869 53.3141 18.5774 52.6814L18.9906 52.4453C20.2612 51.6602 21.4393 50.7345 22.5027 49.6858L22.6502 49.5089C23.9965 48.1558 24.831 46.3771 25.0113 44.4769C25.1165 42.3755 24.5195 40.2988 23.3143 38.5741C21.0124 35.8 19.0643 35.5047 18.0168 35.5047L18.0025 35.5051ZM21.2248 41.7618L18.0375 44.0637C17.7631 44.2655 17.4199 44.3501 17.0831 44.2989C16.7464 44.2477 16.4438 44.065 16.2417 43.7908V43.7834C16.0415 43.4887 15.9593 43.1296 16.0112 42.7771C16.0631 42.4246 16.2453 42.1044 16.522 41.8798L19.6503 39.5632C19.9425 39.3887 20.2896 39.3305 20.6228 39.3999C20.9559 39.4694 21.2508 39.6615 21.4489 39.9382C21.6471 40.2149 21.734 40.5559 21.6925 40.8937C21.6509 41.2315 21.484 41.5413 21.2248 41.7618ZM12.6456 50.6155C12.3577 48.9979 11.6732 47.4769 10.6535 46.1886C10.1165 45.3278 9.4263 44.5726 8.61711 43.9605C7.94748 43.4562 7.16023 43.1312 6.32989 43.0161C5.68591 42.9093 5.02479 42.9913 4.42641 43.2522C2.98379 43.9269 1.83945 45.1083 1.211 46.5716C0.91854 47.2762 0.74358 48.0239 0.693081 48.7851C0.665178 49.3817 0.729881 49.979 0.884887 50.5558C0.960688 50.8273 1.05436 51.0935 1.1653 51.3526C1.43326 51.9643 1.76987 52.5435 2.16864 53.0791C2.65014 53.7979 3.24292 54.4355 3.92475 54.968C5.11294 55.8626 6.58906 56.2882 8.07114 56.1633C8.88894 56.1295 9.68958 55.9181 10.4174 55.5436C11.122 55.251 11.7088 54.7317 12.0849 54.0679C12.6709 53.029 12.8695 51.816 12.6456 50.6444V50.6155ZM5.62753 53.8619C5.09971 53.7423 4.60209 53.5155 4.1655 53.1957C3.72892 52.8759 3.36267 52.4698 3.08947 52.0026C2.76717 51.5883 2.5307 51.114 2.39389 50.6072C2.25707 50.1005 2.22266 49.5716 2.29266 49.0514C2.49919 48.3726 3.28128 48.3873 3.76822 49.0514L6.18822 52.3862C6.55864 53.0798 6.27822 53.9209 5.62905 53.8619H5.62753ZM40.2777 55.8097C38.2559 55.8224 36.2511 55.4415 34.3749 54.6882V67.1868C34.3599 67.7384 34.5516 68.2757 34.9123 68.6934C35.273 69.111 35.7767 69.3789 36.3246 69.4444H38.4346C38.9167 69.3818 39.3627 69.1558 39.6981 68.8039C40.0336 68.4521 40.2381 67.9958 40.2777 67.5114V55.8097ZM38.8021 52.8437C38.6428 51.9903 38.6428 51.1148 38.8021 50.2614C39.0342 48.659 39.6575 47.1386 40.6171 45.8346C41.2765 44.7397 42.1681 43.8027 43.2289 43.0898C44.1661 42.3997 45.2286 41.8985 46.3573 41.6143C45.0089 39.8905 43.3278 38.4554 41.4139 37.394C39.4287 36.1268 37.1153 35.4701 34.7604 35.5051C33.6979 35.5051 31.8092 35.7855 29.4334 38.5746C28.2276 40.299 27.6305 42.3759 27.7364 44.4773C27.9161 46.3777 28.7507 48.1565 30.0975 49.5093L30.2452 49.6862C31.3079 50.7357 32.4861 51.6614 33.7571 52.4457L34.1703 52.6818C35.7607 53.3147 37.4365 53.7076 39.1425 53.8475C38.9964 53.5302 38.8827 53.199 38.8032 52.8589L38.8021 52.8437ZM36.557 43.7686C36.4581 43.9052 36.3333 44.021 36.1896 44.1093C36.046 44.1977 35.8863 44.2569 35.7198 44.2835C35.5533 44.3102 35.3832 44.3038 35.2191 44.2646C35.0551 44.2255 34.9004 44.1545 34.7638 44.0555L31.5543 41.7623C31.2912 41.545 31.1198 41.2363 31.0746 40.8981C31.0293 40.5598 31.1135 40.2169 31.3104 39.9381C31.5072 39.6593 31.8021 39.4651 32.136 39.3945C32.4699 39.3239 32.8181 39.382 33.111 39.5572L36.2393 41.874C36.5258 42.0687 36.7237 42.3687 36.7901 42.7086C36.8564 43.0485 36.7857 43.4009 36.5935 43.689L36.557 43.7686ZM51.522 46.6314C50.8941 45.1925 49.7673 44.0291 48.3493 43.3554C47.7511 43.0949 47.0903 43.0129 46.4466 43.1193C45.6161 43.2338 44.8287 43.559 44.1593 44.0637C43.3493 44.675 42.6587 45.4302 42.1223 46.2916C41.1014 47.5793 40.4168 49.1006 40.1302 50.7186C39.8943 51.8866 40.0827 53.1004 40.6614 54.1419C41.0367 54.8063 41.6237 55.3258 42.3288 55.6176C43.0711 55.9716 43.8822 56.158 44.7046 56.1636C46.1799 56.2889 47.6499 55.8688 48.8363 54.983C49.524 54.447 50.1218 53.8046 50.6071 53.0803C50.9999 52.5433 51.3315 51.9642 51.5957 51.3537C51.7054 51.0941 51.7991 50.828 51.8761 50.5569C52.0353 49.9807 52.105 49.3835 52.0827 48.7861C52.0165 48.0417 51.8271 47.3135 51.522 46.6314ZM49.6899 52.0619C49.4077 52.5304 49.0333 52.9368 48.5894 53.2564C48.1455 53.576 47.6414 53.8022 47.1075 53.9212C46.4584 53.9212 46.178 53.1391 46.6059 52.4455L49.0259 49.1111C49.4538 48.4028 50.2359 48.388 50.5016 49.1111C50.5687 49.6321 50.5315 50.1614 50.3921 50.6679C50.2528 51.1744 50.0141 51.6482 49.6899 52.0616V52.0619Z" fill="white"/>
</g>
<defs>
<clipPath id="clip0_70_293">
<rect width="52.7778" height="75" fill="white"/>
</clipPath>
</defs>
</svg>
