<svg width="45" height="75" viewBox="0 0 45 75" fill="none" xmlns="http://www.w3.org/2000/svg">
<path d="M44.4444 38.9C44.4444 38.3694 44.4444 37.8389 44.4444 37.3083C44.4444 36.8611 44.4361 36.4139 44.425 35.968C44.4126 34.9908 44.3267 34.0158 44.168 33.0514C44.0034 32.0851 43.6953 31.1489 43.2541 30.2736C42.3571 28.516 40.9261 27.0879 39.1666 26.1944C38.2913 25.7533 37.3551 25.4453 36.3889 25.2805C35.4245 25.1219 34.4495 25.036 33.4722 25.0236C33.025 25.0111 32.5778 25.0055 32.1305 25.0042C31.6 25.0042 31.0694 25.0042 30.5375 25.0042H13.9C13.3694 25.0042 12.8389 25.0042 12.3083 25.0042C11.8611 25.0042 11.4139 25.0125 10.968 25.0236C9.99075 25.036 9.01578 25.1219 8.05137 25.2805C7.08512 25.4452 6.14888 25.7532 5.27359 26.1944C3.5166 27.0904 2.08857 28.5198 1.19443 30.2778C0.753325 31.1531 0.445303 32.0893 0.280539 33.0555C0.121877 34.0199 0.0359864 34.9949 0.0235948 35.9722C0.0110948 36.4194 0.00553928 36.8667 0.00415039 37.3139C0.00415039 37.8444 0.00415039 38.375 0.00415039 38.9069V57.2125C0.00415039 57.6292 0.0124837 58.0542 0.0235948 58.4764C0.0352765 59.4522 0.120238 60.4258 0.277761 61.3889C0.442445 62.3551 0.75047 63.2914 1.19165 64.1667C2.08831 65.9241 3.51882 67.3522 5.27776 68.2458C6.15312 68.6868 7.08934 68.9948 8.05554 69.1597C9.01994 69.3184 9.99492 69.4043 10.9722 69.4167C11.4194 69.4292 11.8666 69.4347 12.3139 69.4361C12.8444 69.4361 13.375 69.4361 13.9069 69.4361H30.5514C31.0819 69.4361 31.6125 69.4361 32.143 69.4361C32.5903 69.4361 33.0375 69.4278 33.4833 69.4167C34.4606 69.4043 35.4356 69.3184 36.4 69.1597C37.3662 68.995 38.3025 68.687 39.1778 68.2458C40.9315 67.3498 42.3569 65.922 43.25 64.1667C43.691 63.2913 43.999 62.3551 44.1639 61.3889C44.3225 60.4245 44.4084 59.4495 44.4208 58.4722C44.4333 58.025 44.4389 57.5778 44.4403 57.1305C44.4403 56.6 44.4403 56.0694 44.4403 55.5375L44.4444 38.9ZM13.693 39.4194C14.2929 38.7223 15.1387 38.2834 16.0541 38.1944C16.1197 39.1257 15.8209 40.046 15.2208 40.7611C14.936 41.1193 14.5724 41.4072 14.1584 41.6023C13.7443 41.7974 13.2909 41.8945 12.8333 41.8861C12.8054 41.4384 12.867 40.9897 13.0146 40.5661C13.1623 40.1426 13.3929 39.7527 13.693 39.4194ZM18.293 52.2222C17.6236 53.2069 16.9347 54.1667 15.8333 54.1917C14.7708 54.2111 14.4166 53.5611 13.1944 53.5611C11.9722 53.5611 11.5805 54.1722 10.5764 54.2111C9.51387 54.25 8.70693 53.1667 8.03887 52.1833C6.6611 50.1944 5.61804 46.5722 7.03471 44.1278C7.3626 43.5337 7.84021 43.0358 8.4201 42.6835C8.99998 42.3312 9.66196 42.1367 10.3403 42.1194C11.3833 42.1 12.3472 42.8139 12.9791 42.8139C13.6111 42.8139 14.7305 41.9805 16.0486 42.0653C16.6269 42.0882 17.1921 42.244 17.7006 42.5205C18.209 42.797 18.647 43.1868 18.9805 43.6597C18.4578 43.9819 18.025 44.4309 17.7222 44.9651C17.4194 45.4993 17.2565 46.1013 17.2486 46.7153C17.254 47.4061 17.4593 48.0805 17.8399 48.657C18.2205 49.2335 18.7599 49.6875 19.393 49.9639C19.1369 50.7656 18.7664 51.5263 18.293 52.2222ZM26.5972 44.6361H24.4444V50.9264C24.4444 51.8986 24.8722 52.3486 25.8139 52.3486C26.0716 52.3444 26.3289 52.3263 26.5847 52.2944V54.0708C26.1637 54.1393 25.7376 54.1714 25.3111 54.1667C23.0889 54.1667 22.2222 53.3139 22.2222 51.1528V44.6375H20.575V42.8722H22.2222V40.1972H24.4444V42.8722H26.5972V44.6361ZM34.1236 54.0805H31.7625L27.7903 42.8722H30.1389L32.925 51.8792H32.9778L35.7639 42.8722H38.0722L34.1236 54.0805Z" fill="white"/>
</svg>
