<svg width="30" height="75" viewBox="0 0 30 75" fill="none" xmlns="http://www.w3.org/2000/svg">
<g clip-path="url(#clip0_73_3)">
<path d="M23.5695 51.7084C25.8085 49.4331 28.4723 45.832 28.4723 41.5842C28.4927 37.7991 27.0257 34.1574 24.3871 31.4435C23.1244 30.1283 21.612 29.0781 19.9384 28.3543C18.2649 27.6306 16.4638 27.2479 14.6406 27.2285H14.4855C12.6692 27.2533 10.8759 27.6386 9.20971 28.3622C7.54356 29.0858 6.03777 30.1331 4.77978 31.4435C2.14325 34.1554 0.676329 37.7937 0.694503 41.5759C0.694503 45.8237 3.33339 49.4249 5.54756 51.7084C7.41622 53.9182 8.42304 56.7291 8.38242 59.6228L8.39034 61.1112H20.8171V59.6474C20.7466 56.7556 21.7241 53.9359 23.5695 51.7084ZM18.0556 73.6112H11.1112V72.2223H18.0556V73.6112ZM20.8334 69.4445H8.33339V68.0556H20.8334V69.4445ZM20.8334 65.2778H8.33339V63.8889H20.8334V65.2778Z" fill="white"/>
</g>
<defs>
<clipPath id="clip0_73_3">
<rect width="29.1667" height="75" fill="white"/>
</clipPath>
</defs>
</svg>
