<svg width="144" height="80" viewBox="0 0 144 80" fill="none" xmlns="http://www.w3.org/2000/svg">
<g clip-path="url(#clip0_70_299)">
<path d="M143.056 71.1111C142.982 71.2479 142.567 71.5899 142.451 71.5899C142.451 71.5899 139.575 73.4425 136.008 73.6965C132.442 73.9504 129.167 74.0698 129.167 74.0698L111.111 74.0741C111.111 74.0741 99.6352 74.0685 94.9814 74.0685C93.7984 74.0685 93.0561 74.0688 93.0556 74.0698C93.055 74.0708 93.0418 74.0714 93.0166 74.0714C92.6195 74.0714 89.255 73.9385 85.9036 73.6965C82.3364 73.439 79.4597 71.5899 79.4597 71.5899C79.3431 71.5899 79.24 71.2479 79.1668 71.1111H84.7224V62.2222H87.5002V71.1111H88.8891H134.722V41.4815H101.389V38.5185H135.417C136.774 38.5185 137.5 39.3207 137.5 40.7407V71.1111H143.056ZM2.43056 41.4815V40.7407C2.43056 39.3114 3.52111 38.1481 4.86111 38.1481H34.7222V35.5555H3.47222C1.55458 35.5555 0 37.2138 0 39.2593V44.0741C1.34 44.0741 2.43056 42.9108 2.43056 41.4815ZM38.1945 62.2222H52.7778V70.3704C52.7778 72.4159 51.2232 74.0741 49.3056 74.0741H3.47222C1.55458 74.0741 0 72.4159 0 70.3704V44.8148C1.7225 44.8148 3.125 43.3196 3.125 41.4815V40.7407C3.125 39.7193 3.90347 38.8889 4.86111 38.8889H34.7222V58.5185C34.7222 60.5607 36.2799 62.2222 38.1945 62.2222ZM26.3767 52.7612C26.3767 52.8089 26.3767 52.8413 26.3781 52.8597C26.3818 52.8868 26.412 52.8959 26.4717 52.8959C26.6161 52.8959 26.7585 52.857 26.8972 52.7753C27.0379 52.6951 27.1621 52.5873 27.2729 52.4486C27.3858 52.3136 27.471 52.1593 27.5378 51.987C27.6036 51.813 27.6389 51.6393 27.6389 51.468V51.3956C27.6389 51.3748 27.6365 51.3527 27.629 51.3281C27.4661 51.3385 27.3057 51.3825 27.1536 51.4693C27.0003 51.5575 26.8668 51.6717 26.7563 51.8013C26.6382 51.9403 26.5506 52.0945 26.4803 52.2604C26.412 52.4292 26.3767 52.5939 26.3767 52.7612V52.7612ZM28.9336 56.3052C28.6685 56.1809 28.4618 55.9929 28.316 55.745C28.1664 55.4985 28.0947 55.2277 28.0947 54.9295C28.0947 54.6453 28.1482 54.3938 28.2514 54.185C28.3597 53.9723 28.5324 53.7908 28.7683 53.639C28.6406 53.4316 28.4642 53.2683 28.2454 53.145C28.0218 53.0191 27.7945 52.9569 27.5486 52.9569C27.4575 52.9569 27.3689 52.9686 27.2814 52.9893C27.1949 53.0101 27.0831 53.0477 26.9372 53.1009C26.79 53.1606 26.6722 53.2034 26.5931 53.2332C26.5178 53.2643 26.4643 53.2785 26.434 53.2785C26.3463 53.2785 26.1957 53.2279 25.9782 53.1268C25.7568 53.0293 25.5647 52.9788 25.4018 52.9788C25.1815 52.9788 24.9763 53.0293 24.7903 53.1268C24.6031 53.2277 24.4401 53.3653 24.2979 53.5493C24.1568 53.7283 24.0438 53.9464 23.9636 54.1913C23.8836 54.4391 23.8445 54.7089 23.8445 54.9991C23.8445 55.1886 23.865 55.3804 23.8968 55.5803C23.9258 55.7813 23.9721 55.977 24.0271 56.1714C24.0826 56.3711 24.157 56.5591 24.235 56.7447C24.3197 56.9262 24.4039 57.0948 24.5024 57.2477C24.607 57.4138 24.7018 57.5486 24.7904 57.6588C24.8756 57.7704 24.9522 57.8585 25.03 57.9246C25.1078 57.9895 25.1818 58.0375 25.2536 58.0673C25.3231 58.0932 25.3935 58.1073 25.4736 58.1073C25.5235 58.1073 25.5975 58.0932 25.679 58.0673C25.7595 58.0375 25.8517 58.0087 25.9513 57.9741C26.0474 57.9403 26.1447 57.9079 26.2442 57.8793C26.3392 57.8468 26.4315 57.8339 26.514 57.8339C26.5908 57.8339 26.6722 57.847 26.7693 57.873C26.8615 57.9055 26.9553 57.9338 27.0489 57.9662C27.1413 57.9987 27.2301 58.0286 27.32 58.057C27.4065 58.0844 27.482 58.0985 27.5438 58.0985C27.6411 58.0985 27.7333 58.0791 27.8197 58.0287C27.912 57.9793 27.9985 57.9119 28.086 57.8341C28.1285 57.7836 28.1931 57.7108 28.2745 57.6086C28.3485 57.5061 28.4288 57.3842 28.5126 57.2479C28.5918 57.1157 28.6683 56.964 28.7438 56.8056C28.8167 56.6452 28.8811 56.4751 28.9336 56.3052V56.3052ZM83.3334 60.7407H77.7778H77.0834H59.0278H58.3334H54.1667H53.4722H52.7778H38.1945C37.0439 60.7407 36.1111 59.7458 36.1111 58.5185V38.8889V38.1481V35.5555V34.8148V34.0741V22.9629C36.1111 21.7357 37.0439 20.7407 38.1945 20.7407H97.9167C99.0673 20.7407 100 21.7357 100 22.9629V37.037V37.7778V38.5185V41.4815V42.2222V42.963V58.5185C100 59.7458 99.0673 60.7407 97.9167 60.7407H88.8889H88.1945H87.5H84.7222H84.0278H83.3334ZM83.3334 57.7778H84.0278H84.7222H87.5H88.1945H88.8889H97.2223V42.963V42.2222V41.4815V38.5185V37.7778V37.037V23.7037H38.8889V34.0741V34.8148V35.5555V38.1481V38.8889V57.7778H52.7778H53.4722H54.1667H83.3334ZM59.7222 62.2222V74.0741H76.3889V62.2222V61.4815H59.7222V62.2222Z" fill="white"/>
</g>
<defs>
<clipPath id="clip0_70_299">
<rect width="143.056" height="80" fill="white"/>
</clipPath>
</defs>
</svg>
