<svg width="84" height="62" viewBox="0 0 84 62" fill="none" xmlns="http://www.w3.org/2000/svg">
<path d="M79.1667 5.88895H61.1112C60.6348 5.89354 60.1629 5.98047 59.7162 6.1459C59.7162 6.2384 59.722 6.34034 59.722 6.43006V6.95354V12.8334H81.9445V54.5001H59.7223V55.3701C59.7544 56.3097 59.6802 57.2499 59.5012 58.1728C59.3205 59.0029 58.9655 59.7851 58.4595 60.4674C59.2009 61.0949 60.1398 61.4409 61.1112 61.4445H79.1667C80.2718 61.4445 81.3316 61.0055 82.113 60.2241C82.8944 59.4427 83.3334 58.3829 83.3334 57.2778V10.0556C83.3334 8.95055 82.8944 7.89074 82.113 7.10934C81.3316 6.32794 80.2718 5.88895 79.1667 5.88895ZM64.5834 9.88201C64.4804 9.88201 64.3797 9.85146 64.294 9.79423C64.2084 9.737 64.1416 9.65566 64.1022 9.56049C64.0628 9.46532 64.0525 9.3606 64.0725 9.25956C64.0926 9.15853 64.1423 9.06573 64.2151 8.99289C64.2879 8.92005 64.3807 8.87045 64.4818 8.85035C64.5828 8.83025 64.6875 8.84057 64.7827 8.87999C64.8779 8.91941 64.9592 8.98616 65.0164 9.07181C65.0737 9.15746 65.1042 9.25816 65.1042 9.36117C65.1042 9.4993 65.0493 9.63175 64.9516 9.72942C64.854 9.82709 64.7215 9.88197 64.5834 9.88201ZM73.2639 9.7084H67.0139C66.9218 9.7084 66.8335 9.67181 66.7684 9.6067C66.7033 9.54158 66.6667 9.45326 66.6667 9.36117C66.6667 9.26908 66.7033 9.18077 66.7684 9.11565C66.8335 9.05053 66.9218 9.01395 67.0139 9.01395H73.2639C73.356 9.01395 73.4443 9.05053 73.5095 9.11565C73.5746 9.18077 73.6112 9.26908 73.6112 9.36117C73.6112 9.45326 73.5746 9.54158 73.5095 9.6067C73.4443 9.67181 73.356 9.7084 73.2639 9.7084ZM70.1389 60.4028C69.6582 60.4028 69.1883 60.2603 68.7886 59.9932C68.3889 59.7261 68.0774 59.3465 67.8934 58.9024C67.7094 58.4583 67.6613 57.9696 67.7551 57.4981C67.8489 57.0266 68.0804 56.5935 68.4203 56.2536C68.7602 55.9137 69.1933 55.6822 69.6648 55.5884C70.1362 55.4946 70.6249 55.5428 71.0691 55.7267C71.5132 55.9107 71.8928 56.2222 72.1599 56.6219C72.4269 57.0216 72.5695 57.4916 72.5695 57.9723C72.5695 58.6169 72.3134 59.2351 71.8576 59.6909C71.4018 60.1468 70.7836 60.4028 70.1389 60.4028ZM71.7084 57.9723C71.7084 58.2827 71.6163 58.5861 71.4439 58.8442C71.2714 59.1023 71.0263 59.3035 70.7395 59.4223C70.4528 59.541 70.1372 59.5721 69.8327 59.5116C69.5283 59.451 69.2487 59.3015 69.0292 59.0821C68.8097 58.8626 68.6602 58.5829 68.5996 58.2785C68.5391 57.974 68.5702 57.6585 68.689 57.3717C68.8077 57.0849 69.0089 56.8398 69.267 56.6673C69.5251 56.4949 69.8285 56.4028 70.1389 56.4028C70.555 56.4034 70.9539 56.5689 71.2481 56.8631C71.5424 57.1573 71.7079 57.5562 71.7084 57.9723ZM58.3334 6.43284C58.3615 5.60489 58.3026 4.77627 58.1577 3.96062C57.9965 3.14872 57.6152 2.39675 57.0556 1.78687C56.4952 1.1893 55.7757 0.764283 54.9818 0.561869C54.19 0.38283 53.3785 0.306369 52.5671 0.334369C52.4137 0.33372 52.2592 0.333396 52.1036 0.333396H34.2584H33.8213C33.5278 0.333396 33.2188 0.334507 32.9543 0.341174C32.5187 0.347266 32.084 0.383696 31.6535 0.450202C31.245 0.514555 30.8462 0.629368 30.466 0.792008C30.0439 0.975004 29.6546 1.22561 29.3132 1.53395C28.6576 2.1337 28.1983 2.91736 27.9953 3.78242C27.8155 4.65379 27.7424 5.54381 27.7778 6.43284C27.7778 6.63798 27.7778 6.84867 27.7778 7.05784V55.3455C27.7497 56.1731 27.8086 57.0015 27.9534 57.8169C28.1146 58.6291 28.4961 59.3814 29.0561 59.9915C29.6167 60.5888 30.3361 61.0138 31.1299 61.2163C31.9217 61.3954 32.7333 61.4718 33.5446 61.4437C39.3859 61.4455 46.5211 61.4437 52.3664 61.4437C53.1938 61.4749 54.0221 61.4106 54.8348 61.2519C55.651 61.0712 56.3977 60.6588 56.9853 60.0641C57.5712 59.4552 57.9735 58.6935 58.1463 57.8663C58.3012 57.0355 58.3639 56.1901 58.3334 55.3455V7.0577C58.3334 6.84854 58.3334 6.63798 58.3334 6.43284ZM40.7516 1.04326C40.7516 0.995371 40.7706 0.949446 40.8044 0.915585C40.8383 0.881725 40.8842 0.862702 40.9321 0.862702H45.1803C45.2282 0.862702 45.2741 0.881725 45.308 0.915585C45.3418 0.949446 45.3609 0.995371 45.3609 1.04326V1.07103C45.3609 1.11892 45.3418 1.16485 45.308 1.19871C45.2741 1.23257 45.2282 1.25159 45.1803 1.25159H40.9316C40.8837 1.25159 40.8377 1.23257 40.8039 1.19871C40.77 1.16485 40.751 1.11892 40.751 1.07103L40.7516 1.04326ZM38.5695 2.20034C38.6255 2.10722 38.7063 2.03147 38.8028 1.9815C38.8993 1.93153 39.0078 1.9093 39.1161 1.91729C39.2579 1.9304 39.3896 1.99597 39.4854 2.10114C39.5813 2.20632 39.6345 2.34351 39.6345 2.48583C39.6345 2.62815 39.5813 2.76534 39.4854 2.87051C39.3896 2.97568 39.2579 3.04125 39.1161 3.05437C39.0077 3.06222 38.8992 3.03984 38.8027 2.98973C38.7062 2.93961 38.6254 2.86372 38.5695 2.77048C38.5219 2.68298 38.497 2.58499 38.497 2.48541C38.497 2.38583 38.5219 2.28784 38.5695 2.20034ZM56.9445 6.95354V7.0577V55.373C56.9721 56.1056 56.9208 56.839 56.7917 57.5606C56.6763 58.1371 56.3991 58.6688 55.9925 59.0935C55.5892 59.5007 55.0757 59.7813 54.5152 59.9009C53.807 60.0325 53.0863 60.0844 52.3666 60.0556H34.2565C34.0829 60.0556 33.7272 60.0556 33.5506 60.0556C32.8582 60.0829 32.1651 60.0223 31.4879 59.8751C30.9466 59.7388 30.4553 59.4508 30.0721 59.0449C29.6828 58.6182 29.4193 58.0919 29.311 57.5245C29.1885 56.805 29.1402 56.0748 29.1667 55.3455V7.0577C29.1667 6.9034 29.1667 6.56965 29.1667 6.41131C29.1344 5.64316 29.1934 4.87388 29.3425 4.11965C29.4795 3.52208 29.7939 2.97986 30.2445 2.56409C30.4743 2.35674 30.7364 2.18824 31.0204 2.0652C31.2962 1.94817 31.5855 1.86583 31.8815 1.82006C32.2483 1.76387 32.6186 1.73361 32.9896 1.72951C33.2434 1.72298 33.54 1.72215 33.8215 1.72215H34.0515H34.2586H36.9679C37.0444 1.71869 37.1211 1.72265 37.1968 1.73395C37.2722 1.74344 37.3424 1.77733 37.3967 1.83044C37.451 1.88356 37.4864 1.95298 37.4975 2.02812C37.5106 2.10365 37.5166 2.18023 37.5156 2.25687C37.5156 2.4292 37.5288 2.60127 37.555 2.77159C37.5841 2.93981 37.642 3.10173 37.7263 3.2502C37.861 3.48549 38.0553 3.68109 38.2897 3.81729C38.4725 3.92096 38.6742 3.9868 38.8829 4.0109C39.0933 4.03171 39.3049 4.03843 39.5161 4.03104H46.5956C46.8069 4.03843 47.0185 4.03171 47.2289 4.0109C47.4376 3.98678 47.6393 3.92093 47.822 3.81729C48.0564 3.68103 48.2507 3.48538 48.3853 3.25006C48.4695 3.10158 48.5274 2.93966 48.5564 2.77145C48.5827 2.60113 48.5959 2.42906 48.596 2.25673C48.5949 2.18009 48.6008 2.10351 48.6139 2.02798C48.6251 1.95287 48.6606 1.88349 48.7149 1.83038C48.7691 1.77728 48.8393 1.74337 48.9146 1.73381C48.9904 1.7226 49.0671 1.71874 49.1436 1.72229H52.1036H52.5604C53.253 1.69511 53.9461 1.75578 54.6234 1.90284C55.1648 2.03908 55.656 2.32719 56.0392 2.73326C56.4284 3.15995 56.6918 3.6862 56.7999 4.25354C56.9226 4.97352 56.971 5.70421 56.9443 6.43409C56.9445 6.53506 56.9445 6.85923 56.9445 6.95354ZM26.3889 55.3455V6.95354V6.41423C26.3529 5.41782 26.4399 4.42078 26.6477 3.44562C26.8783 2.49969 27.3425 1.62675 27.9979 0.906729C27.7292 0.766125 27.4476 0.651753 27.157 0.565202C26.7493 0.459002 26.3323 0.392534 25.9118 0.36673C25.4583 0.33423 25.0028 0.333396 24.4561 0.333396H6.09917C5.5525 0.333396 5.0975 0.334368 4.64348 0.366868C4.22286 0.392685 3.80573 0.459152 3.39792 0.565341C2.63374 0.758547 1.93604 1.15482 1.3787 1.71218C0.821356 2.26955 0.425118 2.96727 0.231945 3.73145C0.12567 4.13916 0.0591101 4.5562 0.0331945 4.97673C0.000694446 5.43062 0 5.8859 0 6.43242V55.3453C0 55.8919 0.000694446 56.3471 0.0331945 56.8012C0.0590991 57.2217 0.12566 57.6387 0.231945 58.0463C0.425018 58.8107 0.821299 59.5086 1.37879 60.0661C1.93628 60.6236 2.63421 61.0199 3.39861 61.213C3.80643 61.3191 4.22356 61.3857 4.64417 61.4116C5.0982 61.4441 5.5532 61.4449 6.09986 61.4449H24.4568C25.0035 61.4449 25.4588 61.4441 25.9128 61.4116C26.3333 61.3857 26.7503 61.3192 27.1579 61.213C27.4452 61.1272 27.7237 61.0141 27.9895 60.8753C27.2879 60.0938 26.8071 59.1395 26.5964 58.1106C26.4297 57.1988 26.3601 56.2719 26.3889 55.3455ZM16.3195 13.5517C16.2565 14.3827 15.939 15.1742 15.4101 15.8183C14.9368 16.359 14.3217 16.7565 13.6343 16.9659C12.2821 17.188 10.9093 17.2582 9.54153 17.1753C7.84468 17.2713 6.1425 17.1986 4.46 16.9584C3.64568 16.7052 2.93942 16.187 2.45361 15.4862C2.40208 15.3865 2.31764 15.2809 2.27306 15.1759L2.25847 15.162C2.25639 15.1526 2.255 15.1323 2.24458 15.1333C2.24264 15.1238 2.24083 15.1034 2.2307 15.1044C2.2307 15.0974 2.23333 15.0871 2.2232 15.0905C2.20347 15.032 2.17639 15.0034 2.15806 14.946C1.79394 13.9094 1.65862 12.8062 1.76139 11.7123C1.78639 9.68881 1.70403 7.56978 1.80445 5.60562C1.85141 5.19128 1.95594 4.78552 2.115 4.40006C2.47333 3.54351 3.14063 2.853 3.98445 2.46562C4.79233 2.14815 5.65961 2.01024 6.52612 2.06145C8.59556 2.08354 10.742 2.00965 12.7622 2.10465C13.2468 2.15026 13.7202 2.27702 14.1626 2.47965C14.7064 2.73445 15.1815 3.11538 15.5485 3.59076C15.7828 3.91387 15.9699 4.26874 16.104 4.64465C16.2981 5.30492 16.3836 5.99236 16.3571 6.68006C16.3324 8.96548 16.4072 11.2827 16.3195 13.5517ZM5.4057 3.1284C4.98574 3.15539 4.57757 3.27841 4.21264 3.48797C3.8477 3.69754 3.53573 3.98807 3.30074 4.33718C3.06576 4.68629 2.91403 5.08467 2.85725 5.50165C2.80046 5.91863 2.84013 6.34308 2.9732 6.74232C3.10627 7.14155 3.32919 7.50492 3.6248 7.80444C3.92041 8.10396 4.28081 8.33165 4.67826 8.46996C5.07571 8.60827 5.4996 8.65352 5.91729 8.60223C6.33498 8.55093 6.73533 8.40446 7.0875 8.17409C7.59276 7.83988 7.9737 7.34839 8.17134 6.77575C8.36898 6.20311 8.37227 5.58128 8.18072 5.00657C7.98916 4.43187 7.61344 3.93637 7.11176 3.59682C6.61008 3.25728 6.01043 3.09263 5.4057 3.1284ZM12.357 6.80979C11.9259 6.83524 11.5066 6.95976 11.1316 7.17367C10.7565 7.38757 10.4359 7.6851 10.1945 8.04311C9.95317 8.40113 9.79766 8.80998 9.74006 9.23788C9.68247 9.66578 9.72434 10.1012 9.86242 10.5103C10.0005 10.9194 10.2311 11.2911 10.5362 11.5966C10.8414 11.902 11.2128 12.133 11.6218 12.2715C12.0307 12.41 12.4661 12.4523 12.8941 12.3952C13.322 12.3381 13.731 12.183 14.0893 11.942C14.5934 11.5946 14.9706 11.0924 15.1637 10.5114C15.3569 9.93041 15.3554 9.30233 15.1596 8.72224C14.9638 8.14216 14.5843 7.64168 14.0786 7.2966C13.5729 6.95151 12.9685 6.78061 12.357 6.80979ZM5.52125 10.5994C5.0436 10.6088 4.57669 10.7428 4.1667 10.9881C3.75672 11.2333 3.41786 11.5814 3.18363 11.9978C2.94941 12.4142 2.82794 12.8845 2.83124 13.3622C2.83454 13.84 2.96249 14.3086 3.20244 14.7217C3.44239 15.1348 3.78603 15.4781 4.19936 15.7177C4.6127 15.9573 5.08141 16.0848 5.55915 16.0877C6.03689 16.0905 6.5071 15.9686 6.92329 15.734C7.33947 15.4994 7.6872 15.1603 7.93209 14.7501C8.18064 14.3291 8.31259 13.8496 8.31435 13.3608C8.3161 12.8719 8.18762 12.3915 7.9421 11.9688C7.69658 11.5461 7.3429 11.1964 6.91742 10.9557C6.49194 10.715 6.01003 10.592 5.52125 10.5994Z" fill="white"/>
</svg>
