<svg width="92" height="75" viewBox="0 0 92 75" fill="none" xmlns="http://www.w3.org/2000/svg">
<g clip-path="url(#clip0_70_302)">
<path d="M60.6944 22.2223H50V12.5001C50 10.9659 51.2437 9.72228 52.7778 9.72228H63.193C63.5765 9.72228 63.8875 10.0331 63.8875 10.4167V23.5291C63.0612 22.7232 61.9364 22.2223 60.6944 22.2223ZM78.4722 9.72228H65.9722C65.5887 9.72228 65.2778 10.0331 65.2778 10.4167V26.8088V66.2469V68.7501C65.2778 69.1335 65.5887 69.4445 65.9722 69.4445H78.4722C78.8557 69.4445 79.1666 69.1335 79.1666 68.7501V10.4167C79.1666 10.0331 78.8557 9.72228 78.4722 9.72228ZM88.8889 9.72228H84.7222H81.25C80.8665 9.72228 80.5555 10.0331 80.5555 10.4167V68.7501C80.5555 69.1335 80.8665 69.4445 81.25 69.4445H84.7222H88.8889C90.4229 69.4445 91.6666 68.2009 91.6666 66.6667V12.5001C91.6666 10.9659 90.4229 9.72228 88.8889 9.72228ZM6.94444 66.6667H4.16667C3.39972 66.6667 2.77778 66.0449 2.77778 65.2778V6.9445C2.77778 6.17742 3.39972 5.55561 4.16667 5.55561H6.94444H43.0555C43.8225 5.55561 44.4444 6.17742 44.4444 6.9445V22.2223H47.2222V6.9445C47.2222 4.64325 45.3568 2.77783 43.0555 2.77783H6.94444H4.16667C1.86542 2.77783 0 4.64325 0 6.9445V65.2778C0 67.5791 1.86542 69.4445 4.16667 69.4445H6.94444H31.8632C31.15 68.713 30.6974 67.7413 30.5979 66.6667H6.94444ZM63.8465 26.3888C63.865 26.5277 63.8889 26.6649 63.8889 26.8088V66.2469C63.8889 68.0128 62.4586 69.4445 60.6944 69.4445H37.6472H36.2776H35.1389C35.0482 69.4445 34.9629 69.4252 34.874 69.4178C33.3765 69.2927 32.1824 68.1446 31.9867 66.6667C31.9683 66.528 31.9444 66.3907 31.9444 66.2469V65.9723V65.2778V26.8088C31.9444 25.0428 33.3747 23.6112 35.1389 23.6112H43.0555H43.75H44.4444H47.2222H47.9167H48.6111H50H60.6944C62.3148 23.6112 63.6393 24.8234 63.8465 26.3888ZM61.1111 27.4217C61.1111 26.8513 60.6568 26.3889 60.0962 26.3889H35.7371C35.1765 26.3889 34.7222 26.8513 34.7222 27.4217V65.6339C34.7222 66.2044 35.1765 66.6667 35.7371 66.6667H60.0962C60.6568 66.6667 61.1111 66.2044 61.1111 65.6339V27.4217Z" fill="white"/>
</g>
<defs>
<clipPath id="clip0_70_302">
<rect width="91.6666" height="75" fill="white"/>
</clipPath>
</defs>
</svg>
