<svg width="60" height="60" viewBox="0 0 60 60" fill="none" xmlns="http://www.w3.org/2000/svg">
<path d="M29.9999 59.9125C29.652 59.9161 29.3095 59.8264 29.0081 59.6527C28.7066 59.4791 28.4571 59.2278 28.2856 58.9251L25.1794 54.5965C25.0885 54.4474 25.0079 54.3977 24.9119 54.3977H17.9999C15.954 54.3977 13.9918 53.5849 12.5451 52.1382C11.0984 50.6915 10.2856 48.7294 10.2856 46.6834V22.7143C10.2856 20.6683 11.0984 18.7062 12.5451 17.2595C13.9918 15.8128 15.954 15 17.9999 15H41.9999C44.0459 15 46.008 15.8128 47.4548 17.2595C48.9015 18.7062 49.7142 20.6683 49.7142 22.7143V46.6834C49.7142 48.7294 48.9015 50.6915 47.4548 52.1382C46.008 53.5849 44.0459 54.3977 41.9999 54.3977H35.0811C35.0363 54.3976 34.9924 54.4093 34.9535 54.4316C34.9147 54.4538 34.8824 54.4859 34.8599 54.5245L31.6594 58.9971C31.4871 59.2816 31.2432 59.5159 30.952 59.6766C30.6608 59.8372 30.3325 59.9186 29.9999 59.9125ZM17.9999 16.6834C16.4059 16.692 14.8801 17.3312 13.7559 18.4612C12.6317 19.5912 12.0004 21.1203 11.9999 22.7143V46.6834C11.9999 48.2747 12.6321 49.8008 13.7573 50.9261C14.8825 52.0513 16.4086 52.6834 17.9999 52.6834H24.9188C25.2662 52.6825 25.6076 52.7734 25.9086 52.9468C26.2096 53.1201 26.4595 53.3699 26.6331 53.6708L29.7325 57.9977C29.9519 58.3628 30.0942 58.2891 30.2194 58.0697L33.4216 53.5954C33.5965 53.3135 33.841 53.0815 34.1317 52.9217C34.4224 52.762 34.7494 52.6799 35.0811 52.6834H41.9999C43.5912 52.6834 45.1174 52.0513 46.2426 50.9261C47.3678 49.8008 47.9999 48.2747 47.9999 46.6834V22.7143C47.9995 21.1203 47.3682 19.5912 46.244 18.4612C45.1197 17.3312 43.5939 16.692 41.9999 16.6834H17.9999Z" fill="white"/>
<path d="M36.6001 29.772C36.0394 30.1285 35.5766 30.6194 35.2539 31.2002C34.9311 31.7811 34.7586 32.4333 34.7521 33.0977C34.7485 33.8473 34.9668 34.5811 35.3796 35.2068C35.7924 35.8325 36.3811 36.322 37.0715 36.6137C36.819 37.5004 36.4173 38.3375 35.8835 39.0892C35.1481 40.1469 34.3407 41.2252 33.1681 41.2252C31.9955 41.2252 31.6972 40.5257 30.3207 40.5257C29.0007 40.5257 28.5292 41.244 27.4544 41.244C26.3795 41.244 25.6064 40.2617 24.739 39.0326C23.6003 37.3218 22.9724 35.3221 22.9287 33.2674C22.8572 32.6382 22.9148 32.001 23.0977 31.3948C23.2807 30.7885 23.5853 30.2259 23.993 29.7413C24.4006 29.2566 24.9027 28.8601 25.4687 28.576C26.0346 28.2918 26.6525 28.126 27.2847 28.0886C28.4538 28.0886 29.3967 28.8446 30.1133 28.8446C30.8298 28.8446 31.867 28.0509 33.1681 28.0509C33.8383 28.0292 34.5032 28.1753 35.1025 28.4759C35.7019 28.7764 36.2167 29.222 36.6001 29.772ZM30.2075 27.8623C30.1133 27.8623 30.0361 27.8434 29.9624 27.8434C29.9624 27.7869 29.9435 27.6549 29.9435 27.5229C29.9883 26.6495 30.3272 25.8169 30.9052 25.1606C31.5451 24.3998 32.4606 23.9239 33.451 23.8372C33.4679 23.9506 33.4742 24.0654 33.4698 24.18C33.4501 25.0694 33.134 25.9268 32.5715 26.616C32.2832 26.9739 31.9248 27.269 31.5183 27.4833C31.1117 27.6977 30.6657 27.8266 30.2075 27.8623Z" fill="white"/>
</svg>
