<svg width="88" height="75" viewBox="0 0 88 75" fill="none" xmlns="http://www.w3.org/2000/svg">
<g clip-path="url(#clip0_70_308)">
<path d="M34.8959 12.8268H35.764C35.9906 12.8255 36.2153 12.8688 36.4253 12.9543C36.6352 13.0398 36.8262 13.1658 36.9874 13.3251C37.1486 13.4844 37.2769 13.6739 37.3648 13.8828C37.4528 14.0917 37.4988 14.3159 37.5001 14.5425V41.9935C37.5001 43.8353 38.2317 45.6016 39.5341 46.904C40.8364 48.2063 42.6028 48.9379 44.4445 48.9379C46.2863 48.9379 48.0527 48.2063 49.355 46.904C50.6573 45.6016 51.389 43.8353 51.389 41.9935V14.5425C51.389 13.5949 51.389 12.8268 53.1251 12.8268H53.9931C54.1067 12.8283 54.2194 12.8072 54.3248 12.7647C54.4301 12.7222 54.526 12.6593 54.6068 12.5795C54.6876 12.4997 54.7518 12.4046 54.7956 12.2998C54.8394 12.195 54.862 12.0826 54.862 11.969C54.862 11.8554 54.8394 11.743 54.7956 11.6382C54.7518 11.5334 54.6876 11.4383 54.6068 11.3585C54.526 11.2787 54.4301 11.2158 54.3248 11.1733C54.2194 11.1308 54.1067 11.1097 53.9931 11.1112H34.8959C34.7824 11.1097 34.6696 11.1308 34.5643 11.1733C34.4589 11.2158 34.3631 11.2787 34.2822 11.3585C34.2014 11.4383 34.1373 11.5334 34.0935 11.6382C34.0497 11.743 34.0271 11.8554 34.0271 11.969C34.0271 12.0826 34.0497 12.195 34.0935 12.2998C34.1373 12.4046 34.2014 12.4997 34.2822 12.5795C34.3631 12.6593 34.4589 12.7222 34.5643 12.7647C34.6696 12.8072 34.7824 12.8283 34.8959 12.8268ZM44.4445 21.4053C44.783 21.4093 45.1127 21.5133 45.3922 21.7043C45.6717 21.8953 45.8885 22.1646 46.0152 22.4785C46.142 22.7924 46.1731 23.1367 46.1046 23.4682C46.0361 23.7997 45.8711 24.1035 45.6303 24.3415C45.3896 24.5794 45.0838 24.7408 44.7515 24.8054C44.4192 24.8699 44.0753 24.8348 43.7629 24.7043C43.4506 24.5738 43.1838 24.3539 42.9962 24.0722C42.8085 23.7904 42.7084 23.4595 42.7084 23.121C42.7098 22.8944 42.7557 22.6702 42.8437 22.4613C42.9317 22.2524 43.0599 22.0629 43.2211 21.9036C43.3823 21.7443 43.5734 21.6183 43.7833 21.5328C43.9932 21.4473 44.2179 21.404 44.4445 21.4053ZM44.4445 28.268C44.783 28.272 45.1127 28.376 45.3922 28.5669C45.6717 28.7579 45.8885 29.0273 46.0152 29.3411C46.142 29.655 46.1731 29.9993 46.1046 30.3308C46.0361 30.6623 45.8711 30.9662 45.6303 31.2041C45.3896 31.442 45.0838 31.6034 44.7515 31.668C44.4192 31.7326 44.0753 31.6974 43.7629 31.5669C43.4506 31.4365 43.1838 31.2165 42.9962 30.9348C42.8085 30.6531 42.7084 30.3221 42.7084 29.9836C42.7111 29.5259 42.8956 29.088 43.2212 28.7663C43.5467 28.4445 43.9868 28.2653 44.4445 28.268ZM44.4445 35.1307C44.783 35.1347 45.1127 35.2388 45.3922 35.4297C45.6717 35.6207 45.8885 35.89 46.0152 36.2039C46.142 36.5178 46.1731 36.8621 46.1046 37.1936C46.0361 37.5251 45.8711 37.8289 45.6303 38.0669C45.3896 38.3048 45.0838 38.4662 44.7515 38.5308C44.4192 38.5953 44.0753 38.5602 43.7629 38.4297C43.4506 38.2992 43.1838 38.0793 42.9962 37.7976C42.8085 37.5159 42.7084 37.1849 42.7084 36.8464C42.7111 36.3887 42.8956 35.9508 43.2212 35.629C43.5467 35.3073 43.9868 35.128 44.4445 35.1307ZM53.9931 67.7288H53.1251C51.389 67.7288 51.389 66.9607 51.389 66.0131V47.0875C50.5827 48.1689 49.535 49.047 48.3293 49.652C47.1237 50.2569 45.7934 50.5719 44.4445 50.5719C43.0956 50.5719 41.7654 50.2569 40.5597 49.652C39.3541 49.047 38.3064 48.1689 37.5001 47.0875V66.0131C37.4988 66.2397 37.4528 66.4639 37.3648 66.6728C37.2769 66.8817 37.1486 67.0712 36.9874 67.2305C36.8262 67.3898 36.6352 67.5158 36.4253 67.6013C36.2153 67.6868 35.9906 67.7301 35.764 67.7288H34.8959C34.7824 67.7273 34.6696 67.7484 34.5643 67.7909C34.4589 67.8334 34.3631 67.8963 34.2822 67.9761C34.2014 68.0559 34.1373 68.151 34.0935 68.2558C34.0497 68.3606 34.0271 68.473 34.0271 68.5866C34.0271 68.7002 34.0497 68.8127 34.0935 68.9174C34.1373 69.0222 34.2014 69.1173 34.2822 69.1971C34.3631 69.2769 34.4589 69.3399 34.5643 69.3823C34.6696 69.4248 34.7824 69.4459 34.8959 69.4445H53.9931C54.1067 69.4459 54.2194 69.4248 54.3248 69.3823C54.4301 69.3399 54.526 69.2769 54.6068 69.1971C54.6876 69.1173 54.7518 69.0222 54.7956 68.9174C54.8394 68.8127 54.862 68.7002 54.862 68.5866C54.862 68.473 54.8394 68.3606 54.7956 68.2558C54.7518 68.151 54.6876 68.0559 54.6068 67.9761C54.526 67.8963 54.4301 67.8334 54.3248 67.7909C54.2194 67.7484 54.1067 67.7273 53.9931 67.7288Z" fill="white"/>
<path d="M86.1109 31.9018V28.7855C86.1093 27.8572 85.868 26.945 85.4103 26.1372C84.9526 25.3295 84.294 24.6537 83.4984 24.1753L83.5041 24.1537C82.6723 23.7909 81.9481 23.2196 81.4015 22.4951C80.8549 21.7706 80.5045 20.9173 80.3841 20.0178L79.7776 14.7597C79.5883 13.3172 79.3518 13.1043 77.1287 12.6312C75.0323 12.3705 72.923 12.2258 70.8105 12.1978C68.6981 12.2258 66.5888 12.3705 64.4924 12.6312C62.2693 13.1043 62.0328 13.3172 61.8436 14.7597L61.2367 20.0178C61.1262 20.9143 60.7849 21.7668 60.2461 22.4918C59.7073 23.2168 58.9894 23.7895 58.1628 24.1537L58.1675 24.1758C57.3721 24.6543 56.7136 25.33 56.256 26.1376C55.7984 26.9452 55.5571 27.8573 55.5554 28.7855V52.6853C55.5575 53.6278 55.8068 54.5532 56.2783 55.3693C56.7498 56.1853 57.4271 56.8635 58.2426 57.336L58.2392 57.3572C59.0636 57.7507 59.7727 58.3502 60.2976 59.0978C60.8226 59.8455 61.1458 60.7159 61.236 61.625L61.8429 66.8829C62.0321 68.3256 62.2686 68.5385 64.4917 69.0114C66.5882 69.272 68.6976 69.4166 70.8101 69.4445C72.9226 69.4164 75.0318 69.2716 77.1283 69.0108C79.3514 68.5379 79.5879 68.325 79.7772 66.8824L80.3841 61.6244C80.5003 60.7052 80.8473 59.8303 81.3929 59.0814C81.9384 58.3324 82.6648 57.7338 83.5041 57.3414L83.4912 57.2997C84.2888 56.8218 84.9492 56.1457 85.4082 55.3372C85.8673 54.5286 86.1093 53.6151 86.1109 52.6853V37.4573H87.4998V31.9018H86.1109ZM84.7221 37.4573V52.6853C84.722 53.7521 84.2983 54.7752 83.544 55.5297C82.7897 56.2841 81.7667 56.7081 80.6998 56.7083H60.9667C59.8998 56.7081 58.8767 56.2842 58.1224 55.5297C57.3681 54.7753 56.9443 53.7521 56.9443 52.6853V28.7855C56.959 27.7234 57.3875 26.7088 58.1387 25.9578C58.8899 25.2067 59.9045 24.7783 60.9667 24.7639H80.6998C81.762 24.7783 82.7766 25.2067 83.5278 25.9578C84.279 26.7088 84.7074 27.7234 84.7221 28.7855V37.4573ZM78.3004 67.2557C77.8442 67.4238 77.3744 67.5525 76.8962 67.6403C74.8766 67.8891 72.8449 68.0277 70.8101 68.0556C68.7754 68.0278 66.7438 67.8891 64.7242 67.6403C64.2459 67.5525 63.7761 67.4238 63.3199 67.2557C63.2739 67.0809 63.2414 66.9028 63.2226 66.7231L62.619 61.4969C62.4978 60.2564 62.0241 59.0765 61.2537 58.0965H80.4311C79.6361 59.0556 79.14 60.2268 79.0044 61.4651L78.4 66.7013C78.3808 66.8883 78.3475 67.0737 78.3004 67.2557ZM63.32 14.3865C63.7762 14.2183 64.246 14.0897 64.7243 14.0019C66.7438 13.7528 68.7755 13.6142 70.8101 13.5866C72.8449 13.6145 74.8766 13.7531 76.8962 14.0019C77.3744 14.0897 77.8442 14.2184 78.3004 14.3865C78.3465 14.5612 78.379 14.7393 78.3976 14.919L79.0014 20.1453C79.1219 21.3321 79.5932 22.4562 80.355 23.3743H61.2906C62.0362 22.4615 62.4971 21.3497 62.616 20.1771L63.2203 14.9409C63.2394 14.7539 63.2728 14.5685 63.32 14.3865Z" fill="white"/>
<path d="M16.3481 66.8066L16.3489 67.4001C16.3146 68.0255 16.0411 68.6138 15.585 69.043L15.1128 69.4387C14.2585 69.4336 13.5929 69.4211 13.0222 69.4022C13.1011 68.8596 13.3597 68.3592 13.7565 67.981L15.5808 66.4496C16.0021 66.096 16.3472 66.2566 16.3481 66.8066ZM13.8257 67.0072L15.5954 65.4479C16.041 65.0083 16.2986 64.413 16.3143 63.7873L16.2956 63.1944C16.2782 62.6447 15.9264 62.4923 15.5138 62.856L13.7442 64.4146C13.2985 64.8541 13.0408 65.4494 13.0253 66.0751L13.044 66.6687C13.0613 67.2185 13.4131 67.3708 13.8257 67.0072ZM16.3342 59.5678H15.2476L13.7565 60.8194C13.3003 61.2486 13.0268 61.8369 12.9926 62.4623V63.0558C12.9935 63.6058 13.3388 63.7665 13.76 63.4129L15.5843 61.8815C16.0404 61.4523 16.3139 60.864 16.3482 60.2386L16.3474 59.6451C16.3443 59.6191 16.3399 59.5933 16.3342 59.5678ZM13.8257 59.8455L14.1411 59.5678H13.0568C13.1017 60.0583 13.4317 60.1929 13.8257 59.8457V59.8455ZM12.4074 59.5678H11.3854L11.6632 59.8005C12.0451 60.1215 12.3513 60.001 12.4074 59.5678ZM9.82584 61.8355L11.5956 63.3947C12.0083 63.7583 12.3594 63.606 12.3774 63.0562L12.3961 62.4628C12.3806 61.837 12.1229 61.2417 11.6774 60.8021L10.2763 59.5678H9.12862L9.12584 59.5816L9.10709 60.1753C9.12267 60.8009 9.38033 61.396 9.82584 61.8355ZM9.84181 62.8372C9.42056 62.4835 9.07528 62.6441 9.07445 63.1941V63.7876C9.10863 64.413 9.38216 65.0013 9.83834 65.4305L11.6626 66.9619C12.0839 67.3155 12.4292 67.1548 12.4299 66.6048L12.4307 66.0114C12.3964 65.3859 12.1228 64.7977 11.6667 64.3685L9.84181 62.8372ZM9.90751 66.4043C9.49487 66.0407 9.14362 66.193 9.12584 66.7428L9.10709 67.3364C9.1226 67.9621 9.38026 68.5574 9.82584 68.9969L10.0561 69.1998C10.9065 69.2789 11.5651 69.3366 12.3696 69.3761C12.3018 68.8415 12.0583 68.3447 11.6774 67.9636L9.90751 66.4043ZM7.74445 66.4496L7.1889 66.9164L7.20654 67.063C7.2182 67.3793 7.30202 67.6888 7.45157 67.9677C7.60113 68.2467 7.81247 68.4877 8.06945 68.6725C8.33368 68.2984 8.48718 67.8574 8.51237 67.4001V66.8066C8.51098 66.2566 8.1657 66.096 7.74445 66.4496ZM8.47792 63.7873L8.45917 63.1944C8.44195 62.6447 8.09015 62.4923 7.67751 62.856L6.79362 63.6348L7.08334 66.0433L7.75904 65.4479C8.20467 65.0084 8.46238 64.4131 8.47792 63.7873ZM8.49417 59.5479C8.17637 59.534 7.85953 59.5032 7.54501 59.4555L6.26543 60.5296C6.42983 60.9376 6.53366 61.3675 6.57362 61.8055L6.68973 62.7703L7.74806 61.8814C8.2042 61.4521 8.47772 60.8639 8.51195 60.2385V59.645C8.50807 59.6123 8.50214 59.5799 8.49417 59.5479ZM5.20515 58.7614C5.20168 58.8115 5.18737 58.8662 5.1889 58.9142L5.19751 59.1876C5.43437 59.3575 5.65027 59.5548 5.8407 59.7754C5.86959 59.8121 5.88848 59.8533 5.91543 59.891C5.94088 59.8773 5.9656 59.8624 5.98945 59.8461L6.64223 59.2707C6.1494 59.1427 5.66857 58.9723 5.20515 58.7614ZM3.30126 57.5878C3.66932 58.0295 4.09976 58.4153 4.57904 58.7329C4.56738 58.625 4.54718 58.5182 4.51862 58.4135C4.09078 58.1722 3.68361 57.8961 3.30126 57.5878ZM28.7147 58.7564C29.1968 58.4363 29.6313 58.0496 30.0051 57.6079C29.6176 57.9197 29.2046 58.1984 28.7705 58.4412C28.744 58.5447 28.7254 58.6501 28.7147 58.7564ZM26.7008 59.2678L27.3355 59.8005C27.3666 59.8213 27.3991 59.8398 27.4328 59.8561C27.4522 59.8298 27.465 59.8005 27.4854 59.7748C27.6684 59.5615 27.8758 59.3704 28.1033 59.2054V58.8493C28.1033 58.8268 28.0946 58.8005 28.0936 58.7775C27.6438 58.9796 27.1778 59.1436 26.7005 59.2678H26.7008ZM24.8054 59.5496C24.8054 59.5621 24.7992 59.5683 24.7987 59.5812L24.78 60.1748C24.7956 60.8006 25.0533 61.3959 25.4989 61.8355L26.6289 62.8311L26.7522 61.8051C26.7921 61.3716 26.8942 60.946 27.0555 60.5416L25.8174 59.4507C25.4822 59.5028 25.1444 59.5358 24.8055 59.5496H24.8054ZM24.7472 63.1944L24.7464 63.7879C24.7806 64.4133 25.0541 65.0016 25.5103 65.4308L26.2414 66.0446L26.5251 63.6862L25.5137 62.8375C25.0932 62.4835 24.7479 62.6441 24.7472 63.1944ZM24.8796 66.6887L24.8608 67.2823C24.8723 67.73 25.0085 68.1656 25.254 68.5401C25.4995 68.3743 25.7048 68.1556 25.8546 67.9C26.0044 67.6444 26.095 67.3585 26.1197 67.0633L26.1533 66.7839L25.6612 66.3504C25.2486 65.9861 24.8968 66.1389 24.8796 66.6885V66.6887ZM23.4172 66.4498L21.5928 67.9812C21.192 68.3635 20.9326 68.8702 20.8567 69.4187C21.6471 69.4078 22.4357 69.3398 23.2164 69.2151L23.4211 69.0433C23.8772 68.6141 24.1507 68.0258 24.185 67.4004L24.1842 66.8069C24.1836 66.2566 23.8383 66.096 23.4167 66.4496L23.4172 66.4498ZM21.6621 67.0075L23.4317 65.4482C23.8773 65.0086 24.135 64.4133 24.1505 63.7876L24.1319 63.1944C24.1146 62.6447 23.7628 62.4923 23.3501 62.856L21.5804 64.4153C21.1349 64.8549 20.8772 65.4501 20.8615 66.0758L20.8803 66.6694C20.8976 67.2184 21.25 67.3708 21.6621 67.0072V67.0075ZM24.1704 59.568H23.084L21.5928 60.8197C21.1367 61.249 20.8631 61.8372 20.8289 62.4626L20.8297 63.0561C20.8304 63.6061 21.1757 63.7668 21.5969 63.4132L23.4214 61.8818C23.8775 61.4525 24.151 60.8643 24.1853 60.2389L24.1844 59.6454C24.1811 59.6193 24.1764 59.5934 24.1704 59.5678V59.568ZM21.6621 59.8458L21.9775 59.568H20.8932C20.9379 60.0583 21.2679 60.1929 21.6621 59.8457V59.8458ZM20.2437 59.568H19.2222L19.4993 59.8008C19.8814 60.1215 20.1875 60.001 20.2437 59.5678V59.568ZM17.6622 61.8358L19.4319 63.395C19.8446 63.7586 20.1958 63.6062 20.2137 63.0565L20.2325 62.463C20.2168 61.8373 19.9591 61.242 19.5136 60.8023L18.1126 59.568H16.965L16.9621 59.5819L16.9435 60.1755C16.9591 60.8011 17.2168 61.3961 17.6622 61.8355V61.8358ZM17.6782 62.8375C17.2568 62.4837 16.9115 62.6444 16.9108 63.1944L16.91 63.7879C16.9442 64.4133 17.2178 65.0016 17.6739 65.4308L19.4982 66.9622C19.9196 67.3158 20.2649 67.1551 20.2656 66.6051L20.2664 66.0116C20.2321 65.3862 19.9586 64.798 19.5025 64.3687L17.6782 62.8375ZM17.7439 66.4046C17.3313 66.041 16.98 66.1933 16.9621 66.743L16.9435 67.3366C16.959 67.9624 17.2166 68.5576 17.6622 68.9972L18.1699 69.4444C18.9256 69.4451 19.6038 69.443 20.2115 69.4334C20.1547 68.8778 19.908 68.3587 19.5131 67.9637L17.7439 66.4046ZM15.1128 9.40278C14.2585 9.40792 13.5929 9.42042 13.0222 9.43931C13.1009 9.98207 13.3595 10.4827 13.7565 10.8611L15.5808 12.3925C16.0021 12.7461 16.3474 12.5856 16.3481 12.0356L16.3489 11.4421C16.3146 10.8166 16.0411 10.2283 15.585 9.79903L15.1128 9.40278ZM15.5138 15.9861C15.9264 16.3497 16.2776 16.1974 16.2956 15.6476L16.3143 15.0542C16.2987 14.4284 16.041 13.8331 15.5954 13.3935L13.8257 11.8347C13.4131 11.4711 13.0618 11.6233 13.044 12.1731L13.0253 12.7667C13.0408 13.3924 13.2985 13.9878 13.7442 14.4274L15.5138 15.9861ZM13.76 15.4285C13.3388 15.075 12.9935 15.2356 12.9926 15.7856V16.379C13.0268 17.0045 13.3003 17.5928 13.7565 18.0221L15.2667 19.2896H16.3313C16.3387 19.2588 16.3443 19.2277 16.3481 19.1962L16.3489 18.6028C16.3146 17.9774 16.0411 17.3891 15.585 16.9599L13.76 15.4285ZM13.8257 18.9957C13.4268 18.6442 13.0914 18.7837 13.0535 19.2896H14.1593L13.8257 18.9957ZM11.6626 19.0417L11.3664 19.2903H12.4103C12.3611 18.8425 12.0501 18.7162 11.6626 19.0417ZM11.5956 15.4474L9.82584 17.0064C9.38033 17.4459 9.12267 18.041 9.10709 18.6667L9.12584 19.2603C9.12584 19.2724 9.1314 19.2782 9.13209 19.2897H10.2582L11.6774 18.0397C12.1229 17.6002 12.3806 17.0049 12.3961 16.3792L12.3774 15.7856C12.3601 15.2361 12.0083 15.0833 11.5956 15.4471V15.4474ZM11.6626 11.8801L9.83834 13.4112C9.38216 13.8405 9.10863 14.4287 9.07445 15.0542V15.6476C9.07528 16.1976 9.42056 16.3583 9.84181 16.0047L11.6667 14.4733C12.1228 14.0441 12.3963 13.4558 12.4306 12.8304V12.2369C12.4292 11.6869 12.0833 11.5264 11.6626 11.8799V11.8801ZM9.90751 12.4375L11.6774 10.8783C12.0582 10.4972 12.3017 10.0004 12.3696 9.46583C11.5651 9.50528 10.9065 9.56305 10.0561 9.64208L9.82584 9.84486C9.38023 10.2845 9.12256 10.8798 9.10709 11.5056L9.12584 12.099C9.14306 12.6487 9.49487 12.8011 9.90751 12.4375ZM7.20598 11.7787L7.18834 11.9254L7.7439 12.3922C8.16515 12.7458 8.51042 12.5853 8.51126 12.0353V11.4418C8.48642 10.9846 8.33331 10.5436 8.06945 10.1694C7.81237 10.3541 7.60092 10.5951 7.45127 10.8741C7.30161 11.153 7.21771 11.4624 7.20598 11.7787ZM8.45917 15.6481L8.47792 15.0546C8.46242 14.4288 8.2047 13.8335 7.75904 13.3939L7.08334 12.7985L6.79362 15.2083L7.67751 15.9871C8.09015 16.3501 8.44195 16.1978 8.45917 15.6481ZM6.68973 16.0719L6.57362 17.0368C6.53362 17.4747 6.42979 17.9044 6.26543 18.3122L7.56112 19.3999C7.86952 19.3537 8.18013 19.3237 8.49167 19.3101C8.50123 19.2729 8.5081 19.2349 8.51223 19.1967V18.6032C8.478 17.9778 8.20448 17.3895 7.74834 16.9603L6.68973 16.0719ZM6.65654 19.5833L5.98987 18.9956C5.96604 18.9793 5.94133 18.9644 5.91584 18.9508C5.8889 18.9883 5.87001 19.0297 5.84112 19.0662C5.65076 19.287 5.43485 19.4843 5.19793 19.654L5.18932 19.9276C5.18779 19.9799 5.20321 20.0396 5.20723 20.0943C5.67455 19.8821 6.15949 19.7112 6.65654 19.5833ZM3.25848 21.2994V21.3021C3.652 20.9816 4.07218 20.6953 4.51446 20.4464C4.54517 20.3359 4.56654 20.2231 4.57834 20.109C4.07897 20.4345 3.63363 20.8362 3.25848 21.2994ZM30.0574 21.289C29.6742 20.8213 29.2214 20.4153 28.7147 20.0854C28.7255 20.1979 28.7452 20.3094 28.7737 20.4187C29.2261 20.6709 29.6556 20.9621 30.0574 21.289ZM27.485 19.0668C27.4646 19.0411 27.4518 19.0112 27.4324 18.9856C27.3987 19.0018 27.3662 19.0203 27.3351 19.0411L26.686 19.5861C27.1675 19.7103 27.6376 19.875 28.0914 20.0785C28.093 20.0507 28.1032 20.0189 28.1032 19.9917V19.6354C27.8756 19.4707 27.6681 19.2799 27.485 19.0668ZM24.7797 18.6667L24.7985 19.2603C24.7985 19.2799 24.8071 19.2896 24.8086 19.3082C25.141 19.3216 25.4724 19.3536 25.8012 19.404L27.055 18.2994C26.8938 17.8952 26.7917 17.4699 26.7519 17.0365L26.6285 16.0104L25.4986 17.0061C25.0531 17.4457 24.7954 18.041 24.7797 18.6667ZM25.5144 16.0044L26.5258 15.1556L26.2421 12.7972L25.511 13.411C25.0548 13.8402 24.7813 14.4285 24.7471 15.0539L24.7479 15.6474C24.7479 16.1976 25.0932 16.3583 25.5139 16.0047L25.5144 16.0044ZM25.6612 12.4915L26.1528 12.0583L26.1192 11.7787C26.0945 11.4835 26.0039 11.1976 25.8541 10.9421C25.7043 10.6865 25.4991 10.4677 25.2536 10.3019C25.0083 10.6765 24.8724 11.1121 24.8611 11.5597L24.8799 12.1533C24.8968 12.7031 25.2486 12.8554 25.6612 12.4918V12.4915ZM23.2161 9.62708C22.4354 9.50241 21.6467 9.43432 20.8562 9.42333C20.9321 9.97191 21.1916 10.4786 21.5924 10.8608L23.4167 12.3922C23.8378 12.7458 24.183 12.5853 24.1839 12.0353L24.1847 11.4418C24.1504 10.8164 23.8769 10.2281 23.4208 9.79875L23.2161 9.62708ZM23.3501 15.9865C23.7628 16.3501 24.114 16.1978 24.1319 15.6481L24.1505 15.0546C24.135 14.4288 23.8773 13.8335 23.4317 13.3939L21.6621 11.8347C21.2494 11.4711 20.8982 11.6233 20.8803 12.1731L20.8611 12.7667C20.8767 13.3924 21.1344 13.9877 21.58 14.4274L23.3501 15.9865ZM21.5962 15.4289C21.175 15.0754 20.8297 15.236 20.829 15.786L20.8282 16.3794C20.8625 17.0049 21.136 17.5932 21.5921 18.0225L23.1024 19.29H24.1668C24.1743 19.2593 24.18 19.2281 24.1837 19.1967L24.1846 18.6032C24.1503 17.9778 23.8768 17.3895 23.4207 16.9603L21.5962 15.4289ZM21.6621 18.9961C21.2631 18.6446 20.9278 18.7842 20.8897 19.29H21.9957L21.6621 18.9961ZM19.4989 19.0414L19.2028 19.29H20.2467C20.1967 18.8425 19.8864 18.7162 19.4989 19.0417V19.0414ZM19.4319 15.4471L17.6622 17.0064C17.2166 17.4459 16.959 18.0412 16.9435 18.6669L16.9621 19.2606C16.9621 19.2726 16.9676 19.2785 16.9683 19.29H18.0946L19.5136 18.04C19.9591 17.6004 20.2168 17.0051 20.2325 16.3794L20.2137 15.7858C20.1964 15.2361 19.8446 15.0833 19.4319 15.4471ZM19.4989 11.8799L17.6746 13.4112C17.2185 13.8405 16.9449 14.4288 16.9107 15.0542L16.9115 15.6476C16.9115 16.1976 17.2575 16.3583 17.6789 16.0047L19.5032 14.4733C19.9593 14.0441 20.2328 13.4558 20.2671 12.8304L20.2662 12.2369C20.2656 11.6869 19.9203 11.5264 19.4989 11.8799ZM17.7439 12.4375L19.5139 10.8783C19.9088 10.4833 20.1555 9.96417 20.2124 9.40847C19.604 9.39889 18.9261 9.39667 18.1707 9.3975L17.6628 9.84486C17.2172 10.2845 16.9595 10.8798 16.944 11.5056L16.9626 12.099C16.9794 12.6487 17.3313 12.8011 17.7439 12.4375ZM34.7222 28.5139H33.3333V28.1787C33.3334 26.5964 32.9108 25.0428 32.1092 23.6785C31.3076 22.3143 30.1561 21.1889 28.7737 20.4189C28.5524 20.2951 28.3239 20.1828 28.0915 20.0786C27.3617 19.7523 26.5914 19.5255 25.8012 19.4042C25.4724 19.3537 25.141 19.3217 24.8086 19.3083C24.6868 19.3033 24.5674 19.2899 24.4444 19.2899H8.8889C8.75459 19.2899 8.62403 19.3037 8.49126 19.31C7.3563 19.3594 6.24136 19.6261 5.20682 20.0954C4.97071 20.2032 4.73904 20.3189 4.51446 20.4462C3.14252 21.2175 2.001 22.3405 1.20749 23.6997C0.413978 25.0589 -0.00282576 26.605 1.44186e-05 28.1789V50.6789C-5.35961e-05 52.2528 0.418274 53.7985 1.21215 55.1576C2.00602 56.5167 3.1469 57.6404 4.51793 58.4135C4.74098 58.5397 4.97071 58.6543 5.20515 58.7607C5.94944 59.0987 6.73682 59.3324 7.54501 59.4551C7.85953 59.5028 8.17637 59.5336 8.49417 59.5475C8.62612 59.5532 8.75556 59.5673 8.8889 59.5673H24.4444C24.5662 59.5673 24.6846 59.5535 24.8055 59.5491C25.1443 59.5356 25.482 59.5027 25.8171 59.4508C26.6026 59.3288 27.3684 59.1024 28.094 58.7778C28.3246 58.6736 28.5514 58.563 28.771 58.4404C30.1519 57.6681 31.3024 56.5421 32.1042 55.1781C32.906 53.8141 33.3302 52.2612 33.3333 50.679V35.4583H34.7222V28.5139ZM31.9444 50.679C31.9307 52.6639 31.1361 54.5636 29.7326 55.9672C28.329 57.3707 26.4293 58.1653 24.4444 58.179H8.8889C8.56233 58.1766 8.23627 58.1529 7.91279 58.108C6.11029 57.8693 4.45561 56.9848 3.25585 55.6186C2.05609 54.2523 1.39273 52.4972 1.3889 50.679V28.179C1.40405 26.1946 2.19909 24.2957 3.60234 22.8925C5.00559 21.4892 6.90446 20.6942 8.8889 20.679H24.4444C26.4317 20.6852 28.3357 21.4773 29.7409 22.8825C31.1461 24.2877 31.9383 26.1918 31.9444 28.179V28.5139V35.4583V50.679Z" fill="white"/>
</g>
<defs>
<clipPath id="clip0_70_308">
<rect width="87.4999" height="75" fill="white"/>
</clipPath>
</defs>
</svg>
