<svg width="46" height="45" viewBox="0 0 46 45" fill="none" xmlns="http://www.w3.org/2000/svg">
<path d="M43.222 4.10964C44.2469 4.10964 45.0778 3.27874 45.0778 2.25379C45.0778 1.22885 44.2469 0.397949 43.222 0.397949H2.39344C1.3685 0.397949 0.537598 1.22882 0.537598 2.25379C0.537598 3.27874 1.3685 4.10964 2.39344 4.10964H43.222Z" fill="#212121"/>
<path d="M44.5342 17.0255C44.8824 17.3735 45.0779 17.8456 45.0779 18.3378V28.8542H32.7056V16.4819H43.222C43.7142 16.4819 44.1863 16.6775 44.5342 17.0255Z" fill="#212121"/>
<path d="M28.9939 28.8546V18.9124C28.3767 19.0013 27.7425 18.957 27.138 18.7773V20.8126C27.138 23.2042 25.1993 25.1429 22.8077 25.1429C20.4162 25.1429 18.4774 23.2042 18.4774 20.8126V18.7773C17.8729 18.957 17.2388 19.0013 16.6216 18.9124V28.8546H28.9939Z" fill="#212121"/>
<path d="M16.6216 32.5659H28.9939V44.9382H16.6216V32.5659Z" fill="#212121"/>
<path d="M12.9099 28.8542V16.4819H2.39344C1.3685 16.4819 0.537598 17.3128 0.537598 18.3378V28.8542H12.9099Z" fill="#212121"/>
<path d="M0.537598 32.5659H12.9099V44.9382H8.57959C4.13811 44.9382 0.537598 41.3376 0.537598 36.8962V32.5659Z" fill="#212121"/>
<path d="M32.7056 32.5659H45.0779V36.8962C45.0779 41.3376 41.4773 44.9382 37.0359 44.9382H32.7056V32.5659Z" fill="#212121"/>
<path d="M29.7622 15.859C29.0814 16.6251 27.9083 16.6941 27.1422 16.0131L24.6635 13.8098V20.8122C24.6635 21.8371 23.8326 22.668 22.8077 22.668C21.7828 22.668 20.9518 21.8371 20.9518 20.8122V13.8098L18.4732 16.0131C17.707 16.6941 16.534 16.6251 15.8531 15.859C15.1721 15.093 15.2411 13.9199 16.0072 13.239L21.5747 8.29006C22.2779 7.66503 23.3375 7.66503 24.0407 8.29006L29.6082 13.239C30.3743 13.9199 30.4431 15.093 29.7622 15.859V15.859Z" fill="#212121"/>
</svg>
