<svg width="45" height="45" viewBox="0 0 45 45" fill="none" xmlns="http://www.w3.org/2000/svg">
<path d="M16.084 16.084V26.0261C16.7012 25.9373 17.3353 25.9816 17.9398 26.1612V24.126C17.9398 21.7344 19.8786 19.7957 22.2701 19.7957C24.6617 19.7957 26.6004 21.7344 26.6004 24.126V26.1612C27.2049 25.9816 27.8391 25.9373 28.4563 26.0261V16.084H16.084Z" fill="#212121"/>
<path d="M12.3723 16.084V28.4563H1.85584C1.36365 28.4563 0.891597 28.2608 0.543564 27.9126C0.195532 27.5647 0 27.0926 0 26.6004V16.084H12.3723Z" fill="#212121"/>
<path d="M16.084 12.3723H28.4563V0H16.084V12.3723Z" fill="#212121"/>
<path d="M32.168 16.084V28.4563H42.6844C43.7093 28.4563 44.5403 27.6254 44.5403 26.6004V16.084H32.168Z" fill="#212121"/>
<path d="M44.5403 12.3723H32.168V0H36.4983C40.9397 0 44.5403 3.60054 44.5403 8.04199V12.3723Z" fill="#212121"/>
<path d="M12.3723 12.3723H0V8.04199C0 3.60051 3.60054 0 8.04199 0H12.3723V12.3723Z" fill="#212121"/>
<path d="M1.85584 40.8286C0.830898 40.8286 0 41.6595 0 42.6845C0 43.7094 0.830898 44.5403 1.85584 44.5403H42.6844C43.7093 44.5403 44.5403 43.7094 44.5403 42.6845C44.5403 41.6595 43.7093 40.8286 42.6844 40.8286H1.85584Z" fill="#212121"/>
<path d="M15.3155 29.079C15.9964 28.3129 17.1694 28.2441 17.9355 28.9248L20.4142 31.1283V24.1259C20.4142 23.1009 21.2451 22.27 22.2701 22.27C23.295 22.27 24.1259 23.1009 24.1259 24.1259V31.1283L26.6046 28.9248C27.3707 28.2441 28.5438 28.3129 29.2248 29.079C29.9057 29.8451 29.8367 31.0182 29.0706 31.6992L23.5031 36.6481C22.7998 37.2729 21.7403 37.2729 21.037 36.6481L15.4696 31.6992C14.7035 31.0182 14.6345 29.8451 15.3155 29.079V29.079Z" fill="#212121"/>
</svg>
