<svg width="46" height="45" viewBox="0 0 46 45" fill="none" xmlns="http://www.w3.org/2000/svg">
<path d="M4.43491 0.397949H13.8997V11.533H10.0024C6.00511 11.533 2.76465 8.29255 2.76465 4.29522V2.06821C2.76465 1.14576 3.51246 0.397949 4.43491 0.397949Z" fill="#212121"/>
<path d="M17.2402 0.397949H28.3753V11.533H17.2402V0.397949Z" fill="#212121"/>
<path d="M42.8509 2.06821C42.8509 1.14576 42.1031 0.397949 41.1806 0.397949H31.7158V11.533H35.6131C39.6104 11.533 42.8509 8.29255 42.8509 4.29522V2.06821Z" fill="#212121"/>
<path d="M41.1806 44.9383C42.1031 44.9383 42.8509 44.1905 42.8509 43.268V41.041C42.8509 37.0437 39.6104 33.8032 35.6131 33.8032H31.7158V44.9383H41.1806Z" fill="#212121"/>
<path d="M17.2402 44.9383H28.3753V33.8032H17.2402V44.9383Z" fill="#212121"/>
<path d="M4.43491 44.9383H13.8997V33.8032H10.0024C6.00511 33.8032 2.76465 37.0437 2.76465 41.041V43.268C2.76465 44.1905 3.51246 44.9383 4.43491 44.9383Z" fill="#212121"/>
<path d="M30.6523 24.3386H43.4073C44.3298 24.3386 45.0776 23.5907 45.0776 22.6683C45.0776 21.7459 44.3298 20.998 43.4073 20.998H30.6523C30.6009 21.0555 30.5477 21.1118 30.4924 21.1669L28.9912 22.6683L30.4924 24.1698C30.5477 24.2248 30.6009 24.2811 30.6523 24.3386Z" fill="#212121"/>
<path d="M15.5196 24.3386C15.571 24.2811 15.6243 24.2248 15.6795 24.1698L17.1808 22.6683L15.6794 21.1669C15.6243 21.1118 15.571 21.0555 15.5196 20.998H2.20786C1.28541 20.998 0.537598 21.7459 0.537598 22.6683C0.537598 23.5907 1.28541 24.3386 2.20786 24.3386H15.5196Z" fill="#212121"/>
<path d="M28.4426 28.3032C27.7903 28.9555 26.733 28.9555 26.0807 28.3032L22.8076 25.0304L19.5346 28.3032C18.8823 28.9555 17.8248 28.9555 17.1726 28.3032C16.5203 27.6509 16.5203 26.5936 17.1726 25.9413L20.4454 22.6682L17.1726 19.3952C16.5203 18.7429 16.5203 17.6854 17.1726 17.0331C17.8248 16.3809 18.8823 16.3809 19.5346 17.0331L22.8076 20.306L26.0807 17.0331C26.733 16.3809 27.7903 16.3809 28.4426 17.0331C29.0949 17.6854 29.0949 18.7429 28.4426 19.3952L25.1698 22.6682L28.4426 25.9413C29.0949 26.5936 29.0949 27.6509 28.4426 28.3032Z" fill="#212121"/>
</svg>
